<?xml version="1.0" standalone="no"?><!-- Generator: Gravit.io --><svg xmlns="http://www.w3.org/2000/svg" xmlns:xlink="http://www.w3.org/1999/xlink" style="isolation:isolate" viewBox="0 0 643 643" width="643" height="643"><defs><clipPath id="_clipPath_rWpyySYxoyUQ9MM5wPJ2Fr7U41iOskOs"><rect width="643" height="643"/></clipPath></defs><g clip-path="url(#_clipPath_rWpyySYxoyUQ9MM5wPJ2Fr7U41iOskOs)"><g id="character backup"><g id="body shape"><path d=" M 233.031 35.724 C 220.132 19.822 200.432 9.68 178.381 9.68 C 139.458 9.68 107.858 41.28 107.858 80.202 C 107.858 88.382 109.254 96.239 111.831 103.542 C 83.715 113.807 63.609 140.798 63.609 172.448 C 63.609 195.424 74.204 215.944 90.805 229.345 C 84.513 242.797 85.955 259.244 95.899 271.573 L 164.388 356.486 C 178.283 373.713 203.55 376.419 220.777 362.524 C 238.005 348.629 240.71 323.361 226.815 306.134 L 200.951 274.068 C 206.657 268.318 210.185 260.402 210.185 251.669 C 210.185 238.439 202.089 227.085 190.575 222.316 C 200.246 211.92 206.932 198.711 209.255 184.056 C 219.955 204.519 236.126 221.674 255.817 233.585 L 255.817 251.669 L 255.817 251.669 L 320.809 251.669 L 387.183 251.669 L 387.183 251.669 L 387.183 233.585 C 406.874 221.674 423.045 204.519 433.745 184.056 C 436.068 198.711 442.754 211.92 452.425 222.317 C 440.911 227.085 432.815 238.439 432.815 251.669 C 432.815 260.402 436.343 268.318 442.049 274.068 L 416.185 306.134 C 402.29 323.361 404.995 348.629 422.223 362.524 C 439.45 376.419 464.717 373.713 478.612 356.486 L 547.101 271.573 C 557.045 259.244 558.487 242.797 552.195 229.345 C 568.796 215.944 579.391 195.424 579.391 172.449 C 579.391 140.798 559.285 113.807 531.169 103.542 C 533.746 96.239 535.142 88.382 535.142 80.202 C 535.142 41.28 503.542 9.68 464.619 9.68 C 442.568 9.68 422.868 19.822 409.969 35.724 C 387.3 13.619 356.324 0 322.191 0 C 321.96 0 321.729 0.001 321.498 0.006 C 321.269 0.001 321.039 0 320.809 0 C 286.676 0 255.7 13.619 233.031 35.724 Z " fill="rgb(250,148,121)"/><path d=" M 355.282 224.866 L 334.058 224.866 C 328.848 224.866 324.619 229.095 324.619 234.305 L 324.619 234.787 C 324.619 239.996 328.848 244.225 334.058 244.225 L 355.282 244.225 C 360.491 244.225 364.72 239.996 364.72 234.787 L 364.72 234.305 C 364.72 229.095 360.491 224.866 355.282 224.866 Z  M 355.282 200.505 L 334.058 200.505 C 328.848 200.505 324.619 204.735 324.619 209.944 L 324.619 210.426 C 324.619 215.635 328.848 219.865 334.058 219.865 L 355.282 219.865 C 360.491 219.865 364.72 215.635 364.72 210.426 L 364.72 209.944 C 364.72 204.735 360.491 200.505 355.282 200.505 Z  M 355.282 175.615 L 334.058 175.615 C 328.848 175.615 324.619 179.844 324.619 185.054 L 324.619 185.536 C 324.619 190.745 328.848 194.974 334.058 194.974 L 355.282 194.974 C 360.491 194.974 364.72 190.745 364.72 185.536 L 364.72 185.054 C 364.72 179.844 360.491 175.615 355.282 175.615 Z  M 440.774 113.389 C 440.774 115.679 438.915 117.538 436.626 117.538 C 434.336 117.538 432.477 115.679 432.477 113.389 C 432.477 111.1 434.336 109.241 436.626 109.241 C 438.915 109.241 440.774 111.1 440.774 113.389 L 440.774 113.389 Z  M 357.569 51.163 L 445.194 51.163 L 445.194 51.163 C 457.255 51.163 467.047 60.955 467.047 73.016 L 467.047 115.007 C 467.047 127.068 457.255 136.86 445.194 136.86 L 346.472 136.86 C 334.411 136.86 324.619 127.068 324.619 115.007 L 324.619 73.834 C 339.143 72.602 351.49 63.682 357.569 51.163 Z  M 540.78 185.703 C 540.78 158.745 518.895 136.86 491.937 136.86 C 464.98 136.86 443.094 158.745 443.094 185.703 C 443.094 212.66 464.98 234.546 491.937 234.546 C 518.895 234.546 540.78 212.66 540.78 185.703 Z  M 287.718 224.866 L 308.942 224.866 C 314.152 224.866 318.381 229.095 318.381 234.305 L 318.381 234.787 C 318.381 239.996 314.152 244.225 308.942 244.225 L 287.718 244.225 C 282.509 244.225 278.28 239.996 278.28 234.787 L 278.28 234.305 C 278.28 229.095 282.509 224.866 287.718 224.866 Z  M 287.718 200.505 L 308.942 200.505 C 314.152 200.505 318.381 204.735 318.381 209.944 L 318.381 210.426 C 318.381 215.635 314.152 219.865 308.942 219.865 L 287.718 219.865 C 282.509 219.865 278.28 215.635 278.28 210.426 L 278.28 209.944 C 278.28 204.735 282.509 200.505 287.718 200.505 Z  M 287.718 175.615 L 308.942 175.615 C 314.152 175.615 318.381 179.844 318.381 185.054 L 318.381 185.536 C 318.381 190.745 314.152 194.974 308.942 194.974 L 287.718 194.974 C 282.509 194.974 278.28 190.745 278.28 185.536 L 278.28 185.054 C 278.28 179.844 282.509 175.615 287.718 175.615 Z  M 202.226 113.389 C 202.226 115.679 204.085 117.538 206.374 117.538 C 208.664 117.538 210.523 115.679 210.523 113.389 C 210.523 111.1 208.664 109.241 206.374 109.241 C 204.085 109.241 202.226 111.1 202.226 113.389 L 202.226 113.389 Z  M 285.431 51.163 L 197.806 51.163 L 197.806 51.163 C 185.745 51.163 175.953 60.955 175.953 73.016 L 175.953 115.007 C 175.953 127.068 185.745 136.86 197.806 136.86 L 296.528 136.86 C 308.589 136.86 318.381 127.068 318.381 115.007 L 318.381 73.834 C 303.857 72.602 291.51 63.682 285.431 51.163 Z  M 102.22 185.703 C 102.22 158.745 124.105 136.86 151.063 136.86 C 178.02 136.86 199.906 158.745 199.906 185.703 C 199.906 212.66 178.02 234.546 151.063 234.546 C 124.105 234.546 102.22 212.66 102.22 185.703 Z " fill-rule="evenodd" fill="rgb(253,194,149)"/><path d=" M 342.933 643 L 387.183 643 L 387.183 251.669 L 255.817 251.669 L 255.817 643 L 297.573 643 L 297.573 313.895 L 342.933 313.895 L 342.933 643 Z " fill="rgb(0,25,40)"/></g></g></g></svg>