
        <!--?xml version="1.0" standalone="no"?-->
        <!-- Generator: Gravit.io -->
        <svg id="character" xmlns="http://www.w3.org/2000/svg" xmlns:xlink="http://www.w3.org/1999/xlink" viewBox="0 0 500 912" width="500" height="912" preserveAspectRatio="xMidYMin">
          <g id="body">
                    <path d=" M 169.44 304.724 C 156.541 288.822 136.84 278.68 114.789 278.68 C 75.867 278.68 44.267 310.28 44.267 349.202 C 44.267 357.382 45.662 365.239 48.24 372.542 C 20.124 382.807 0.017 409.798 0.017 441.448 C 0.017 464.424 10.612 484.944 27.214 498.345 C 20.921 511.797 22.363 528.244 32.307 540.573 L 100.797 625.486 C 114.692 642.713 139.959 645.419 157.186 631.524 C 174.413 617.629 177.118 592.361 163.223 575.134 L 137.359 543.068 C 143.066 537.318 146.594 529.402 146.594 520.669 C 146.594 507.439 138.498 496.085 126.983 491.316 C 136.654 480.92 143.341 467.711 145.664 453.056 C 156.363 473.519 172.534 490.674 192.226 502.585 L 192.226 520.669 L 192.226 520.669 L 257.217 520.669 L 323.591 520.669 L 323.591 520.669 L 323.591 502.585 C 343.283 490.674 359.454 473.519 370.153 453.056 C 372.476 467.711 379.163 480.92 388.834 491.317 C 377.319 496.085 369.224 507.439 369.224 520.669 C 369.224 529.402 372.751 537.318 378.458 543.068 L 352.594 575.134 C 338.699 592.361 341.404 617.629 358.631 631.524 C 375.858 645.419 401.125 642.713 415.02 625.486 L 483.51 540.573 C 493.454 528.244 494.896 511.797 488.604 498.345 C 505.205 484.944 515.8 464.424 515.8 441.449 C 515.8 409.798 495.693 382.807 467.577 372.542 C 470.155 365.239 471.551 357.382 471.551 349.202 C 471.551 310.28 439.95 278.68 401.028 278.68 C 378.977 278.68 359.276 288.822 346.378 304.724 C 323.709 282.619 292.732 269 258.6 269 C 258.369 269 258.137 269.001 257.907 269.006 C 257.678 269.001 257.448 269 257.217 269 C 223.085 269 192.108 282.619 169.44 304.724 Z " fill="rgb(250,148,121)"></path>
                    <path d=" M 291.69 493.866 L 270.466 493.866 C 265.257 493.866 261.028 498.095 261.028 503.305 L 261.028 503.787 C 261.028 508.996 265.257 513.225 270.466 513.225 L 291.69 513.225 C 296.899 513.225 301.129 508.996 301.129 503.787 L 301.129 503.305 C 301.129 498.095 296.899 493.866 291.69 493.866 Z  M 291.69 469.505 L 270.466 469.505 C 265.257 469.505 261.028 473.735 261.028 478.944 L 261.028 479.426 C 261.028 484.635 265.257 488.865 270.466 488.865 L 291.69 488.865 C 296.899 488.865 301.129 484.635 301.129 479.426 L 301.129 478.944 C 301.129 473.735 296.899 469.505 291.69 469.505 Z  M 291.69 444.615 L 270.466 444.615 C 265.257 444.615 261.028 448.844 261.028 454.054 L 261.028 454.536 C 261.028 459.745 265.257 463.974 270.466 463.974 L 291.69 463.974 C 296.899 463.974 301.129 459.745 301.129 454.536 L 301.129 454.054 C 301.129 448.844 296.899 444.615 291.69 444.615 Z  M 377.182 382.389 C 377.182 384.679 375.324 386.538 373.034 386.538 C 370.745 386.538 368.886 384.679 368.886 382.389 C 368.886 380.1 370.745 378.241 373.034 378.241 C 375.324 378.241 377.182 380.1 377.182 382.389 L 377.182 382.389 Z  M 293.977 320.163 L 381.603 320.163 L 381.603 320.163 C 393.664 320.163 403.456 329.955 403.456 342.016 L 403.456 384.007 C 403.456 396.068 393.664 405.86 381.603 405.86 L 282.88 405.86 C 270.819 405.86 261.028 396.068 261.028 384.007 L 261.028 342.834 C 275.551 341.602 287.898 332.682 293.977 320.163 Z  M 477.189 454.703 C 477.189 427.745 455.303 405.86 428.346 405.86 C 401.389 405.86 379.503 427.745 379.503 454.703 C 379.503 481.66 401.389 503.546 428.346 503.546 C 455.303 503.546 477.189 481.66 477.189 454.703 Z  M 224.127 493.866 L 245.351 493.866 C 250.56 493.866 254.79 498.095 254.79 503.305 L 254.79 503.787 C 254.79 508.996 250.56 513.225 245.351 513.225 L 224.127 513.225 C 218.918 513.225 214.688 508.996 214.688 503.787 L 214.688 503.305 C 214.688 498.095 218.918 493.866 224.127 493.866 Z  M 224.127 469.505 L 245.351 469.505 C 250.56 469.505 254.79 473.735 254.79 478.944 L 254.79 479.426 C 254.79 484.635 250.56 488.865 245.351 488.865 L 224.127 488.865 C 218.918 488.865 214.688 484.635 214.688 479.426 L 214.688 478.944 C 214.688 473.735 218.918 469.505 224.127 469.505 Z  M 224.127 444.615 L 245.351 444.615 C 250.56 444.615 254.79 448.844 254.79 454.054 L 254.79 454.536 C 254.79 459.745 250.56 463.974 245.351 463.974 L 224.127 463.974 C 218.918 463.974 214.688 459.745 214.688 454.536 L 214.688 454.054 C 214.688 448.844 218.918 444.615 224.127 444.615 Z  M 138.635 382.389 C 138.635 384.679 140.494 386.538 142.783 386.538 C 145.073 386.538 146.931 384.679 146.931 382.389 C 146.931 380.1 145.073 378.241 142.783 378.241 C 140.494 378.241 138.635 380.1 138.635 382.389 L 138.635 382.389 Z  M 221.84 320.163 L 134.214 320.163 L 134.214 320.163 C 122.153 320.163 112.362 329.955 112.362 342.016 L 112.362 384.007 C 112.362 396.068 122.153 405.86 134.214 405.86 L 232.937 405.86 C 244.998 405.86 254.79 396.068 254.79 384.007 L 254.79 342.834 C 240.266 341.602 227.919 332.682 221.84 320.163 Z  M 38.628 454.703 C 38.628 427.745 60.514 405.86 87.471 405.86 C 114.428 405.86 136.314 427.745 136.314 454.703 C 136.314 481.66 114.428 503.546 87.471 503.546 C 60.514 503.546 38.628 481.66 38.628 454.703 Z " fill-rule="evenodd" fill="rgb(253,194,149)"></path>
                    <path d=" M 279.342 912 L 323.591 912 L 323.591 520.669 L 192.226 520.669 L 192.226 912 L 233.982 912 L 233.982 582.895 L 279.342 582.895 L 279.342 912 Z " fill="rgb(0,25,40)"></path>
                  </g>
          <g id="shoes">
            <path d=" M 390.645 912 C 390.645 889.075 370.01 870.463 344.594 870.463 C 319.177 870.463 298.542 889.075 298.542 912 L 390.645 912 Z  M 217.275 912 C 217.275 889.075 196.64 870.463 171.223 870.463 C 145.807 870.463 125.172 889.075 125.172 912 L 217.275 912 Z " fill-rule="evenodd" fill="rgb(81, 189, 228)"></path>
          </g>
          <g id="head">
            <g id="neck">
              <path d="M 257.909 241.516 L 257.909 241.516 C 279.377 241.516 296.807 258.946 296.807 280.415 L 296.807 303.935 C 296.807 325.404 279.377 342.834 257.909 342.834 L 257.909 342.834 C 236.44 342.834 219.01 325.404 219.01 303.935 L 219.01 280.415 C 219.01 258.946 236.44 241.516 257.909 241.516 Z" fill="rgb(250, 146, 120)"></path>
            </g>
            <g id="ears">
              <path d=" M 309.02 176.383 C 309.02 166.397 317.127 158.29 327.112 158.29 C 337.098 158.29 345.205 166.397 345.205 176.383 C 345.205 186.368 337.098 194.475 327.112 194.475 C 317.127 194.475 309.02 186.368 309.02 176.383 Z  M 170.612 176.383 C 170.612 166.397 178.719 158.29 188.705 158.29 C 198.69 158.29 206.797 166.397 206.797 176.383 C 206.797 186.368 198.69 194.475 188.705 194.475 C 178.719 194.475 170.612 186.368 170.612 176.383 Z " fill-rule="evenodd" fill="rgb(246,145,120)"></path>
            </g>
            <g id="hair">
              <path d=" M 296.233 91.348 C 299.463 85.435 301.299 78.653 301.299 71.446 C 301.299 48.48 282.653 29.834 259.686 29.834 L 198.172 29.834 C 175.205 29.834 156.559 48.48 156.559 71.446 C 156.559 86.489 164.558 99.678 176.524 106.998 C 168.6 115.124 163.796 125.8 163.796 137.484 C 163.796 162.947 186.611 183.62 214.714 183.62 L 308.34 183.62 C 336.443 183.62 359.258 162.947 359.258 137.484 C 359.258 112.021 336.443 91.348 308.34 91.348 L 296.233 91.348 Z " fill="rgb(16,45,60)"></path>
            </g>
            <g id="face">
              <path d="M 193.98 91.348 L 319.751 91.348 C 325.562 91.348 330.279 96.065 330.279 101.875 L 330.279 227.042 C 330.279 266.984 297.851 299.412 257.909 299.412 L 257.909 299.412 C 217.967 299.412 185.539 266.984 185.539 227.042 L 185.539 99.79 C 185.539 95.131 189.321 91.348 193.98 91.348 Z" fill="rgb(252, 192, 146)"></path>
            </g>
            <g id="eyebrows">
              <path d=" M 283.505 138.389 L 310.11 138.389 C 314.751 138.389 318.518 142.156 318.518 146.797 L 318.518 148.072 C 318.518 152.713 314.751 156.481 310.11 156.481 L 283.505 156.481 C 278.864 156.481 275.096 152.713 275.096 148.072 L 275.096 146.797 C 275.096 142.156 278.864 138.389 283.505 138.389 Z  M 205.707 138.389 L 232.312 138.389 C 236.953 138.389 240.721 142.156 240.721 146.797 L 240.721 148.072 C 240.721 152.713 236.953 156.481 232.312 156.481 L 205.707 156.481 C 201.067 156.481 197.299 152.713 197.299 148.072 L 197.299 146.797 C 197.299 142.156 201.067 138.389 205.707 138.389 Z " fill-rule="evenodd" fill="rgb(11,45,61)"></path>
            </g>
            <g id="mouth">
              <path d=" M 301.031 243.325 C 302.978 238.307 304.044 232.863 304.044 227.175 L 211.773 227.175 C 211.773 232.863 212.839 238.307 214.787 243.325 L 301.031 243.325 Z " fill="rgb(252,254,253)"></path>
              <path d=" M 301.031 243.325 C 294.406 260.399 277.588 272.54 257.909 272.54 C 238.23 272.54 221.412 260.399 214.787 243.325 L 301.031 243.325 Z " fill="rgb(180,1,54)"></path>
            </g>
            <g id="facial-hair">
              <path d=" M 257.266 214.774 C 262.369 214.772 267.456 211.58 267.456 211.834 C 267.456 233.634 247.209 249.834 225.409 249.834 C 213.092 249.834 198.632 234.699 191.409 225.834 C 211.7 225.383 235.693 226.892 247.204 211.834 C 248.243 211.948 252.761 214.776 257.266 214.774 Z " fill="rgba(255,255,255,0)"></path><path d=" M 257.393 214.774 C 252.29 214.772 247.204 211.58 247.204 211.834 C 247.204 233.634 267.45 249.834 289.251 249.834 C 301.567 249.834 316.027 234.699 323.251 225.834 C 302.959 225.383 278.966 226.892 267.456 211.834 C 266.416 211.948 261.898 214.776 257.393 214.774 Z " fill="rgba(255,255,255,0)"></path>
            </g>
            <g id="nose">
              <path d=" M 242.533 200.641 C 242.53 200.693 242.53 200.746 242.53 200.798 C 242.53 209.286 249.421 216.177 257.909 216.177 C 266.396 216.177 273.287 209.286 273.287 200.798 C 273.287 200.746 273.287 200.693 273.285 200.641 C 270.561 207.907 264.697 212.939 257.909 212.939 C 251.121 212.939 245.257 207.907 242.533 200.641 Z " fill="rgb(248,146,113)"></path>
            </g>
            <g id="eyes">
              <path d=" M 278.715 178.192 C 278.715 168.206 286.822 160.099 296.807 160.099 C 306.793 160.099 314.9 168.206 314.9 178.192 C 314.9 188.177 306.793 196.284 296.807 196.284 C 286.822 196.284 278.715 188.177 278.715 178.192 Z  M 200.917 178.192 C 200.917 168.206 209.024 160.099 219.01 160.099 C 228.995 160.099 237.102 168.206 237.102 178.192 C 237.102 188.177 228.995 196.284 219.01 196.284 C 209.024 196.284 200.917 188.177 200.917 178.192 Z " fill-rule="evenodd" fill="rgb(252,254,253)"></path>
              <path d=" M 293.189 178.192 C 293.189 176.195 294.81 174.573 296.807 174.573 C 298.805 174.573 300.426 176.195 300.426 178.192 C 300.426 180.189 298.805 181.81 296.807 181.81 C 294.81 181.81 293.189 180.189 293.189 178.192 Z  M 215.391 178.192 C 215.391 176.195 217.013 174.573 219.01 174.573 C 221.007 174.573 222.628 176.195 222.628 178.192 C 222.628 180.189 221.007 181.81 219.01 181.81 C 217.013 181.81 215.391 180.189 215.391 178.192 Z " fill-rule="evenodd" fill="rgb(11,45,61)"></path>
            </g>
            <g id="glasses">
              <path d=" M 339.409 168.9 L 176.409 168.9 L 176.409 156.481 L 339.409 156.481 L 339.409 168.9 Z " fill="rgb(255,255,255)"></path>
              <path d=" M 187.802 158.918 L 187.802 174.079 C 187.802 191.241 201.71 205.152 218.875 205.152 C 236.033 205.152 249.946 191.241 249.946 174.079 L 249.946 158.918 L 187.802 158.918 Z " fill="rgb(46,189,231)"></path>
              <path d=" M 265.69 158.918 L 265.69 174.079 C 265.69 191.241 279.6 205.152 296.763 205.152 C 313.923 205.152 327.834 191.241 327.834 174.079 L 327.834 158.918 L 265.69 158.918 Z " fill="rgb(46,189,231)"></path>
              <path d=" M 187.802 158.918 L 187.802 174.079 C 187.802 181.395 190.336 188.118 194.569 193.427 L 229.08 158.918 L 187.802 158.918 Z " fill="rgb(165,223,249)"></path>
              <path d=" M 249.945 158.918 L 235.836 158.918 L 197.822 196.932 C 201.196 200.041 205.255 202.41 209.748 203.789 L 249.945 163.593 L 249.945 158.918 Z " fill="rgb(165,223,249)"></path>
              <path d=" M 265.69 158.918 L 265.69 174.079 C 265.69 181.411 268.234 188.147 272.478 193.46 L 307.023 158.918 L 265.69 158.918 Z " fill="rgb(165,223,249)"></path>
              <path d=" M 327.835 174.078 L 327.835 168.9 L 291.953 204.785 C 293.522 205.022 295.128 205.153 296.763 205.153 C 313.923 205.153 327.835 191.242 327.835 174.078 Z " fill="rgb(165,223,249)"></path>
              <path d=" M 210.371 201.433 L 210.464 201.46 C 213.194 202.298 216.019 202.718 218.873 202.718 C 234.666 202.718 247.512 189.871 247.512 174.078 L 247.512 161.353 L 190.231 161.353 L 190.231 174.078 C 190.231 174.93 190.276 175.829 190.371 176.815 C 190.391 176.984 190.412 177.154 190.438 177.323 L 190.491 177.71 C 190.565 178.304 190.648 178.89 190.76 179.47 C 190.816 179.78 190.885 180.086 190.961 180.387 C 191.106 181.026 191.235 181.535 191.376 182.036 C 191.486 182.403 191.595 182.763 191.713 183.114 C 191.87 183.587 192.046 184.057 192.226 184.526 L 192.297 184.698 C 192.411 184.996 192.528 185.293 192.653 185.578 C 192.856 186.037 193.077 186.48 193.301 186.925 L 193.493 187.308 C 193.59 187.511 193.686 187.712 193.8 187.912 C 194.113 188.482 194.457 189.022 194.803 189.565 C 195.094 190.014 195.403 190.449 195.718 190.878 L 195.976 191.238 C 196.05 191.346 196.126 191.451 196.203 191.563 L 196.478 191.902 C 197.356 193.004 198.372 194.085 199.495 195.12 L 200.402 195.955 C 200.441 195.987 200.476 196.017 200.508 196.048 L 200.787 196.275 C 201.369 196.753 201.972 197.194 202.585 197.619 L 203.029 197.929 C 203.667 198.36 204.323 198.75 204.991 199.121 L 205.494 199.393 C 206.177 199.759 206.881 200.1 207.599 200.408 L 207.99 200.563 C 208.713 200.863 209.445 201.133 210.188 201.372 L 210.371 201.433 Z  M 218.873 207.583 C 216.031 207.583 213.21 207.227 210.467 206.516 L 210.414 206.571 L 208.767 206.024 C 207.873 205.74 207.011 205.421 206.146 205.065 L 205.671 204.877 C 204.879 204.535 204.07 204.146 203.213 203.691 L 202.635 203.38 C 201.836 202.935 201.08 202.476 200.336 201.98 L 199.815 201.622 C 199.095 201.121 198.394 200.606 197.718 200.055 L 197.434 199.819 C 196.976 199.436 196.571 199.083 196.174 198.718 L 194.375 197.06 L 194.371 197.067 L 194.309 197.003 L 194.315 196.998 L 192.664 194.944 C 192.436 194.658 192.221 194.357 192.006 194.059 L 191.779 193.737 C 191.414 193.238 191.057 192.732 190.717 192.204 C 190.307 191.57 189.911 190.93 189.543 190.265 C 189.393 190 189.257 189.721 189.121 189.446 L 188.959 189.12 C 188.697 188.599 188.436 188.074 188.2 187.537 C 188.047 187.187 187.905 186.831 187.763 186.473 L 187.701 186.304 C 187.484 185.757 187.28 185.209 187.095 184.651 C 186.952 184.231 186.828 183.815 186.702 183.391 C 186.532 182.808 186.384 182.205 186.244 181.603 C 186.134 181.121 186.048 180.757 185.979 180.384 C 185.85 179.704 185.75 179.017 185.659 178.32 L 185.621 178.006 C 185.585 177.762 185.549 177.517 185.528 177.271 C 185.421 176.133 185.366 175.087 185.366 174.078 L 185.366 156.482 L 252.381 156.482 L 252.381 174.078 C 252.381 192.553 237.349 207.583 218.873 207.583 Z " fill="rgb(255,255,255)"></path>
              <path d=" M 293.302 202.49 L 293.583 202.523 C 293.762 202.547 293.937 202.573 294.12 202.583 C 295.101 202.674 295.965 202.719 296.762 202.719 C 312.552 202.719 325.401 189.871 325.401 174.078 L 325.401 161.353 L 268.122 161.353 L 268.122 174.078 C 268.122 174.932 268.163 175.832 268.261 176.815 C 268.275 176.989 268.303 177.163 268.327 177.334 L 268.377 177.707 C 268.451 178.308 268.537 178.895 268.647 179.47 C 268.704 179.783 268.776 180.088 268.845 180.393 C 268.995 181.031 269.122 181.543 269.268 182.049 C 269.372 182.405 269.484 182.767 269.599 183.116 C 269.761 183.595 269.936 184.066 270.119 184.529 L 270.179 184.69 C 270.298 184.993 270.417 185.294 270.542 185.59 C 270.744 186.043 270.969 186.485 271.196 186.934 L 271.381 187.306 C 271.484 187.513 271.584 187.719 271.696 187.924 C 271.983 188.451 272.309 188.961 272.632 189.465 C 272.94 189.944 273.262 190.41 273.596 190.868 L 273.853 191.223 C 273.935 191.343 274.021 191.462 274.108 191.581 L 274.39 191.93 C 278.878 197.551 285.259 201.245 292.357 202.345 L 293.302 202.49 Z  M 296.762 207.584 C 295.812 207.584 294.803 207.536 293.679 207.432 C 293.447 207.406 293.218 207.382 292.986 207.351 L 292.366 207.281 C 292.104 207.253 291.842 207.227 291.581 207.188 L 286.838 206.451 L 287.144 206.145 C 281.543 204.475 276.48 201.369 272.443 197.1 L 272.364 197.186 L 270.58 194.979 C 270.339 194.679 270.115 194.363 269.886 194.048 L 269.663 193.731 C 269.272 193.197 268.897 192.648 268.537 192.089 C 268.158 191.496 267.783 190.901 267.438 190.279 C 267.287 190.006 267.148 189.727 267.013 189.45 L 266.851 189.128 C 266.59 188.606 266.328 188.083 266.092 187.549 C 265.934 187.187 265.793 186.826 265.65 186.459 L 265.59 186.315 C 265.374 185.764 265.171 185.215 264.985 184.652 C 264.846 184.24 264.72 183.825 264.596 183.407 C 264.422 182.81 264.273 182.209 264.131 181.606 C 264.023 181.124 263.937 180.761 263.866 180.388 C 263.736 179.711 263.639 179.016 263.551 178.322 L 263.507 178.022 C 263.472 177.774 263.439 177.525 263.415 177.272 C 263.31 176.137 263.255 175.09 263.255 174.078 L 263.255 156.481 L 330.268 156.481 L 330.268 174.078 C 330.268 192.553 315.236 207.584 296.762 207.584 Z " fill="rgb(255,255,255)"></path>
            </g>
            <g id="front-hair">
              <path d=" M 275.416 89.086 C 275.416 68.367 292.238 51.545 312.958 51.545 C 333.678 51.545 350.5 68.367 350.5 89.086 C 350.5 109.806 333.678 126.628 312.958 126.628 C 292.238 126.628 275.416 109.806 275.416 89.086 Z " fill="rgb(16,45,60)"></path>
            </g>
          </g>
        </svg>
      