<?xml version="1.0" standalone="no"?><!-- Generator: Gravit.io --><svg xmlns="http://www.w3.org/2000/svg" xmlns:xlink="http://www.w3.org/1999/xlink" style="isolation:isolate" viewBox="0 0 313 313" width="313" height="313"><defs><clipPath id="_clipPath_AE2xrhZZPijfzdg6P4zajjqMhSOaeiao"><rect width="313" height="313"/></clipPath></defs><g clip-path="url(#_clipPath_AE2xrhZZPijfzdg6P4zajjqMhSOaeiao)"><clipPath id="_clipPath_sHISxpT5R92zxEknCpLPpGVBJO7QsWua"><rect x="0" y="0" width="313" height="313" transform="matrix(1,0,0,1,0,0)" fill="rgb(255,255,255)"/></clipPath><g clip-path="url(#_clipPath_sHISxpT5R92zxEknCpLPpGVBJO7QsWua)"><g id="Group"><g id="ears"><g id="ears"><path d=" M 207.611 147.454 C 207.611 137.468 215.718 129.361 225.704 129.361 C 235.689 129.361 243.796 137.468 243.796 147.454 C 243.796 157.439 235.689 165.546 225.704 165.546 C 215.718 165.546 207.611 157.439 207.611 147.454 Z  M 69.204 147.454 C 69.204 137.468 77.311 129.361 87.296 129.361 C 97.282 129.361 105.389 137.468 105.389 147.454 C 105.389 157.439 97.282 165.546 87.296 165.546 C 77.311 165.546 69.204 157.439 69.204 147.454 Z " fill-rule="evenodd" fill="rgb(246,145,120)"/></g></g><g id="head"><path d=" M 92.572 61.514 L 218.343 61.514 C 224.153 61.514 228.87 66.231 228.87 72.042 L 228.87 197.208 C 228.87 237.15 196.442 269.578 156.5 269.578 L 156.5 269.578 C 116.558 269.578 84.13 237.15 84.13 197.208 L 84.13 69.956 C 84.13 65.297 87.913 61.514 92.572 61.514 Z " fill="rgb(252,193,148)"/></g></g></g></g></svg>