<?xml version="1.0" standalone="no"?><!-- Generator: Gravit.io --><svg xmlns="http://www.w3.org/2000/svg" xmlns:xlink="http://www.w3.org/1999/xlink" style="isolation:isolate" viewBox="0 0 313 313" width="313" height="313"><defs><clipPath id="_clipPath_HOaS9uDm4blrfg1e9Gl5DFne17CAIMXo"><rect width="313" height="313"/></clipPath></defs><g clip-path="url(#_clipPath_HOaS9uDm4blrfg1e9Gl5DFne17CAIMXo)"><g id="head"><path d="M 92.572 61.514 L 218.343 61.514 C 224.153 61.514 228.87 66.231 228.87 72.042 L 228.87 197.208 C 228.87 237.15 196.442 269.578 156.5 269.578 L 156.5 269.578 C 116.558 269.578 84.13 237.15 84.13 197.208 L 84.13 69.956 C 84.13 65.297 87.913 61.514 92.572 61.514 Z" style="stroke:none;fill:#FCC194;stroke-miterlimit:10;"/></g><g id="eyes"><path d=" M 177.306 148.358 C 177.306 138.373 185.413 130.266 195.399 130.266 C 205.384 130.266 213.491 138.373 213.491 148.358 C 213.491 158.344 205.384 166.451 195.399 166.451 C 185.413 166.451 177.306 158.344 177.306 148.358 Z  M 99.509 148.358 C 99.509 138.373 107.616 130.266 117.601 130.266 C 127.587 130.266 135.694 138.373 135.694 148.358 C 135.694 158.344 127.587 166.451 117.601 166.451 C 107.616 166.451 99.509 158.344 99.509 148.358 Z " fill-rule="evenodd" fill="rgb(252,254,253)"/><path d=" M 191.78 148.358 C 191.78 146.361 193.402 144.74 195.399 144.74 C 197.396 144.74 199.017 146.361 199.017 148.358 C 199.017 150.355 197.396 151.977 195.399 151.977 C 193.402 151.977 191.78 150.355 191.78 148.358 Z  M 113.983 148.358 C 113.983 146.361 115.604 144.74 117.601 144.74 C 119.598 144.74 121.22 146.361 121.22 148.358 C 121.22 150.355 119.598 151.977 117.601 151.977 C 115.604 151.977 113.983 150.355 113.983 148.358 Z " fill-rule="evenodd" fill="rgb(11,45,61)"/></g></g></svg>