<?xml version="1.0" standalone="no"?><!-- Generator: Gravit.io --><svg xmlns="http://www.w3.org/2000/svg" xmlns:xlink="http://www.w3.org/1999/xlink" style="isolation:isolate" viewBox="0 0 313 313" width="313" height="313"><defs><clipPath id="_clipPath_5o6OOuaMF1ArGPbz1HyNOPDwGAYhPnWq"><rect width="313" height="313"/></clipPath></defs><g clip-path="url(#_clipPath_5o6OOuaMF1ArGPbz1HyNOPDwGAYhPnWq)"><g id="head"><g id="head"><path d="M 92.572 61.514 L 218.343 61.514 C 224.153 61.514 228.87 66.231 228.87 72.042 L 228.87 197.208 C 228.87 237.15 196.442 269.578 156.5 269.578 L 156.5 269.578 C 116.558 269.578 84.13 237.15 84.13 197.208 L 84.13 69.956 C 84.13 65.297 87.913 61.514 92.572 61.514 Z" style="stroke:none;fill:#FCC194;stroke-miterlimit:10;"/></g><g id="facial-hair"><path d=" M 155.858 184.94 C 160.96 184.938 166.047 181.747 166.047 182 C 166.047 203.801 145.801 220 124 220 C 111.684 220 97.224 204.866 90 196 C 110.291 195.549 134.285 197.058 145.795 182 C 146.835 182.115 151.352 184.942 155.858 184.94 Z " fill="rgb(255,255,255)"/><path d=" M 155.984 184.94 C 150.882 184.938 145.795 181.747 145.795 182 C 145.795 203.801 166.041 220 187.842 220 C 200.158 220 214.618 204.866 221.842 196 C 201.551 195.549 177.557 197.058 166.047 182 C 165.007 182.115 160.49 184.942 155.984 184.94 Z " fill="rgb(255,255,255)"/></g></g></g></svg>