<?xml version="1.0" standalone="no"?><!-- Generator: Gravit.io --><svg xmlns="http://www.w3.org/2000/svg" xmlns:xlink="http://www.w3.org/1999/xlink" style="isolation:isolate" viewBox="0 0 313 313" width="313" height="313"><defs><clipPath id="_clipPath_HOaS9uDm4blrfg1e9Gl5DFne17CAIMXo"><rect width="313" height="313"/></clipPath></defs><g clip-path="url(#_clipPath_HOaS9uDm4blrfg1e9Gl5DFne17CAIMXo)"><g id="head"><path d="M 92.572 61.514 L 218.343 61.514 C 224.153 61.514 228.87 66.231 228.87 72.042 L 228.87 197.208 C 228.87 237.15 196.442 269.578 156.5 269.578 L 156.5 269.578 C 116.558 269.578 84.13 237.15 84.13 197.208 L 84.13 69.956 C 84.13 65.297 87.913 61.514 92.572 61.514 Z" style="stroke:none;fill:#FCC194;stroke-miterlimit:10;"/></g><g id="front-hair"><path d=" M 174.007 59.253 C 174.007 38.533 190.829 21.711 211.549 21.711 C 232.269 21.711 249.091 38.533 249.091 59.253 C 249.091 79.973 232.269 96.795 211.549 96.795 C 190.829 96.795 174.007 79.973 174.007 59.253 Z " fill="rgb(16,45,60)"/></g></g></svg>