<?xml version="1.0" standalone="no"?><!-- Generator: Gravit.io --><svg xmlns="http://www.w3.org/2000/svg" xmlns:xlink="http://www.w3.org/1999/xlink" style="isolation:isolate" viewBox="0 0 313 313" width="313" height="313"><defs><clipPath id="_clipPath_ME3h43GljOSEV19tvT2ehA9IihT8qRiD"><rect width="313" height="313"/></clipPath></defs><g clip-path="url(#_clipPath_ME3h43GljOSEV19tvT2ehA9IihT8qRiD)"><clipPath id="_clipPath_IPLtTUTDzvJ6X73lpFa3wclhKSNYAlaI"><rect x="0" y="0" width="313" height="313" transform="matrix(1,0,0,1,0,0)" fill="rgb(255,255,255)"/></clipPath><g clip-path="url(#_clipPath_IPLtTUTDzvJ6X73lpFa3wclhKSNYAlaI)"><g id="head"><g id="neck"><path d=" M 156.5 208.385 L 156.5 208.385 C 176.686 208.385 193.075 224.774 193.075 244.96 L 193.075 267.075 C 193.075 287.261 176.686 303.65 156.5 303.65 L 156.5 303.65 C 136.314 303.65 119.925 287.261 119.925 267.075 L 119.925 244.96 C 119.925 224.774 136.314 208.385 156.5 208.385 Z " fill="rgb(250,145,120)"/></g><g id="ears"><path d=" M 204.558 147.144 C 204.558 137.754 212.181 130.131 221.569 130.131 C 230.958 130.131 238.581 137.754 238.581 147.144 C 238.581 156.532 230.958 164.155 221.569 164.155 C 212.181 164.155 204.558 156.532 204.558 147.144 Z  M 74.419 147.144 C 74.419 137.754 82.042 130.131 91.431 130.131 C 100.819 130.131 108.442 137.754 108.442 147.144 C 108.442 156.532 100.819 164.155 91.431 164.155 C 82.042 164.155 74.419 156.532 74.419 147.144 Z " fill-rule="evenodd" fill="rgb(246,145,120)"/></g><g id="hair"><path d=" M 192.535 67.189 C 195.572 61.629 197.298 55.252 197.298 48.476 C 197.298 26.882 179.766 9.35 158.171 9.35 L 100.332 9.35 C 78.738 9.35 61.206 26.882 61.206 48.476 C 61.206 62.62 68.727 75.021 79.978 81.904 C 72.527 89.544 68.01 99.583 68.01 110.569 C 68.01 134.51 89.462 153.948 115.886 153.948 L 203.918 153.948 C 230.343 153.948 251.794 134.51 251.794 110.569 C 251.794 86.627 230.343 67.189 203.918 67.189 L 192.535 67.189 Z " fill="rgb(16,45,60)"/></g><g id="face"><path d=" M 96.391 67.189 L 214.648 67.189 C 220.112 67.189 224.547 71.624 224.547 77.087 L 224.547 194.776 C 224.547 232.332 194.056 262.822 156.5 262.822 L 156.5 262.822 C 118.945 262.822 88.454 232.332 88.454 194.776 L 88.454 75.127 C 88.454 70.746 92.01 67.189 96.391 67.189 Z " fill="rgb(252,193,148)"/></g><g id="mouth"><path d=" M 183.035 220.733 C 181.161 232.918 170.619 242.263 157.912 242.263 L 155.289 242.263 C 141.26 242.263 129.871 230.872 129.871 216.843 L 129.871 214.641 L 172.046 214.641 L 183.035 220.733 Z " fill="rgb(170,0,56)"/><path d=" M 164.505 241.397 C 163.391 228.406 152.478 218.204 139.201 218.204 L 136.578 218.204 C 134.298 218.204 132.089 218.505 129.985 219.07 C 131.099 232.061 142.013 242.263 155.289 242.263 L 157.912 242.263 C 160.192 242.263 162.402 241.962 164.505 241.397 Z " fill="rgb(238,0,68)"/><path d=" M 129.871 191.26 L 129.871 214.641 L 172.046 214.641 L 129.871 191.26 Z " fill="rgb(255,254,255)"/></g><g id="facial-hair"><path d=" M 155.896 183.241 C 160.694 183.239 165.477 180.238 165.477 180.477 C 165.477 200.974 146.44 216.206 125.942 216.206 C 114.361 216.206 100.765 201.975 93.973 193.64 C 113.052 193.216 135.612 194.635 146.435 180.477 C 147.412 180.584 151.66 183.243 155.896 183.241 Z " fill="none"/><path d=" M 156.015 183.241 C 151.217 183.239 146.435 180.238 146.435 180.477 C 146.435 200.974 165.471 216.206 185.97 216.206 C 197.55 216.206 211.146 201.975 217.939 193.64 C 198.859 193.216 176.299 194.635 165.477 180.477 C 164.499 180.584 160.251 183.243 156.015 183.241 Z " fill="none"/></g><g id="nose"><path d=" M 142.043 169.952 C 142.04 170.001 142.04 170.051 142.04 170.1 C 142.04 178.081 148.52 184.56 156.5 184.56 C 164.48 184.56 170.96 178.081 170.96 170.1 C 170.96 170.051 170.96 170.001 170.958 169.952 C 168.397 176.784 162.883 181.516 156.5 181.516 C 150.118 181.516 144.604 176.784 142.043 169.952 Z " fill="rgb(248,146,113)"/></g><g id="eyes"><g id="eyes"><path d=" M 176.063 148.844 C 176.063 139.455 183.686 131.832 193.075 131.832 C 202.464 131.832 210.087 139.455 210.087 148.844 C 210.087 158.233 202.464 165.856 193.075 165.856 C 183.686 165.856 176.063 158.233 176.063 148.844 Z  M 102.913 148.844 C 102.913 139.455 110.536 131.832 119.925 131.832 C 129.314 131.832 136.937 139.455 136.937 148.844 C 136.937 158.233 129.314 165.856 119.925 165.856 C 110.536 165.856 102.913 158.233 102.913 148.844 Z " fill-rule="evenodd" fill="rgb(252,254,253)"/><path d=" M 189.673 148.844 C 189.673 146.967 191.197 145.442 193.075 145.442 C 194.953 145.442 196.477 146.967 196.477 148.844 C 196.477 150.722 194.953 152.246 193.075 152.246 C 191.197 152.246 189.673 150.722 189.673 148.844 Z  M 116.523 148.844 C 116.523 146.967 118.048 145.442 119.925 145.442 C 121.803 145.442 123.327 146.967 123.327 148.844 C 123.327 150.722 121.803 152.246 119.925 152.246 C 118.048 152.246 116.523 150.722 116.523 148.844 Z " fill-rule="evenodd" fill="rgb(11,45,61)"/></g></g><g id="glasses"><path d=" M 233.131 140.108 L 79.87 140.108 L 79.87 128.431 L 233.131 128.431 L 233.131 140.108 Z " fill="rgb(255,255,255)"/><path d=" M 90.582 130.722 L 90.582 144.977 C 90.582 161.114 103.659 174.194 119.799 174.194 C 135.931 174.194 149.013 161.114 149.013 144.977 L 149.013 130.722 L 90.582 130.722 Z " fill="rgb(46,189,231)"/><path d=" M 163.817 130.722 L 163.817 144.977 C 163.817 161.114 176.896 174.194 193.033 174.194 C 209.168 174.194 222.248 161.114 222.248 144.977 L 222.248 130.722 L 163.817 130.722 Z " fill="rgb(46,189,231)"/><path d=" M 90.582 130.722 L 90.582 144.977 C 90.582 151.856 92.965 158.177 96.945 163.169 L 129.394 130.722 L 90.582 130.722 Z " fill="rgb(165,223,249)"/><path d=" M 149.012 130.722 L 135.746 130.722 L 100.003 166.465 C 103.176 169.388 106.992 171.616 111.217 172.912 L 149.012 135.118 L 149.012 130.722 Z " fill="rgb(165,223,249)"/><path d=" M 163.817 130.722 L 163.817 144.977 C 163.817 151.871 166.209 158.205 170.199 163.2 L 202.68 130.722 L 163.817 130.722 Z " fill="rgb(165,223,249)"/><path d=" M 222.249 144.976 L 222.249 140.108 L 188.511 173.849 C 189.986 174.071 191.496 174.195 193.033 174.195 C 209.168 174.195 222.249 161.115 222.249 144.976 Z " fill="rgb(165,223,249)"/><path d=" M 111.803 170.697 L 111.89 170.722 C 114.457 171.51 117.113 171.905 119.797 171.905 C 134.646 171.905 146.725 159.826 146.725 144.976 L 146.725 133.011 L 92.866 133.011 L 92.866 144.976 C 92.866 145.777 92.908 146.623 92.997 147.55 C 93.016 147.709 93.036 147.868 93.06 148.027 L 93.11 148.391 C 93.18 148.95 93.258 149.501 93.363 150.046 C 93.416 150.338 93.481 150.625 93.552 150.908 C 93.689 151.509 93.81 151.988 93.942 152.459 C 94.046 152.804 94.148 153.142 94.259 153.472 C 94.407 153.917 94.572 154.359 94.742 154.8 L 94.808 154.962 C 94.916 155.242 95.026 155.521 95.143 155.789 C 95.334 156.221 95.542 156.637 95.752 157.056 L 95.933 157.416 C 96.024 157.607 96.114 157.796 96.222 157.984 C 96.516 158.52 96.839 159.027 97.165 159.538 C 97.438 159.96 97.729 160.369 98.025 160.773 L 98.268 161.111 C 98.337 161.213 98.409 161.311 98.481 161.417 L 98.74 161.735 C 99.565 162.772 100.52 163.788 101.576 164.761 L 102.429 165.546 C 102.466 165.576 102.499 165.604 102.529 165.634 L 102.791 165.847 C 103.338 166.297 103.905 166.711 104.482 167.111 L 104.899 167.402 C 105.499 167.808 106.116 168.174 106.744 168.523 L 107.217 168.779 C 107.859 169.123 108.521 169.444 109.196 169.733 L 109.564 169.879 C 110.244 170.161 110.932 170.415 111.631 170.64 L 111.803 170.697 Z  M 119.797 176.479 C 117.124 176.479 114.472 176.145 111.893 175.476 L 111.843 175.528 L 110.294 175.014 C 109.454 174.747 108.643 174.447 107.83 174.112 L 107.383 173.935 C 106.639 173.614 105.878 173.248 105.072 172.82 L 104.529 172.528 C 103.778 172.109 103.067 171.678 102.367 171.211 L 101.877 170.875 C 101.2 170.404 100.541 169.919 99.906 169.401 L 99.639 169.179 C 99.208 168.819 98.827 168.487 98.454 168.144 L 96.762 166.585 L 96.759 166.592 L 96.7 166.532 L 96.706 166.527 L 95.153 164.596 C 94.939 164.327 94.737 164.044 94.535 163.763 L 94.321 163.461 C 93.978 162.992 93.643 162.516 93.323 162.019 C 92.937 161.423 92.565 160.821 92.219 160.196 C 92.078 159.947 91.95 159.685 91.822 159.426 L 91.67 159.12 C 91.424 158.63 91.178 158.136 90.956 157.631 C 90.812 157.302 90.679 156.967 90.545 156.631 L 90.487 156.472 C 90.283 155.957 90.091 155.442 89.917 154.918 C 89.783 154.523 89.666 154.131 89.548 153.733 C 89.388 153.185 89.249 152.618 89.117 152.052 C 89.014 151.598 88.933 151.256 88.868 150.905 C 88.747 150.266 88.653 149.62 88.567 148.965 L 88.531 148.67 C 88.497 148.44 88.464 148.21 88.444 147.978 C 88.343 146.908 88.292 145.925 88.292 144.976 L 88.292 128.431 L 151.303 128.431 L 151.303 144.976 C 151.303 162.347 137.169 176.479 119.797 176.479 Z " fill="rgb(255,255,255)"/><path d=" M 189.779 171.691 L 190.043 171.722 C 190.211 171.744 190.376 171.769 190.548 171.778 C 191.47 171.864 192.283 171.906 193.032 171.906 C 207.879 171.906 219.96 159.826 219.96 144.976 L 219.96 133.011 L 166.103 133.011 L 166.103 144.976 C 166.103 145.779 166.142 146.625 166.234 147.55 C 166.247 147.713 166.273 147.877 166.296 148.038 L 166.343 148.388 C 166.413 148.954 166.494 149.505 166.597 150.046 C 166.651 150.34 166.718 150.627 166.783 150.914 C 166.924 151.514 167.044 151.995 167.181 152.471 C 167.279 152.806 167.384 153.146 167.492 153.474 C 167.644 153.925 167.809 154.368 167.981 154.803 L 168.037 154.954 C 168.149 155.239 168.261 155.522 168.379 155.8 C 168.569 156.226 168.78 156.642 168.994 157.064 L 169.168 157.414 C 169.264 157.609 169.358 157.802 169.464 157.995 C 169.734 158.491 170.04 158.97 170.344 159.444 C 170.633 159.894 170.936 160.332 171.25 160.763 L 171.492 161.097 C 171.569 161.21 171.65 161.322 171.732 161.434 L 171.997 161.762 C 176.217 167.047 182.216 170.52 188.89 171.554 L 189.779 171.691 Z  M 193.032 176.48 C 192.139 176.48 191.19 176.435 190.133 176.338 C 189.915 176.313 189.7 176.29 189.482 176.261 L 188.899 176.196 C 188.653 176.169 188.406 176.145 188.161 176.108 L 183.701 175.415 L 183.989 175.127 C 178.722 173.557 173.962 170.637 170.166 166.623 L 170.092 166.704 L 168.414 164.629 C 168.188 164.346 167.977 164.049 167.762 163.753 L 167.552 163.455 C 167.185 162.953 166.832 162.437 166.494 161.911 C 166.137 161.354 165.785 160.794 165.46 160.209 C 165.318 159.953 165.187 159.69 165.061 159.43 L 164.908 159.127 C 164.663 158.636 164.416 158.145 164.195 157.642 C 164.046 157.302 163.913 156.963 163.779 156.618 L 163.723 156.482 C 163.519 155.964 163.329 155.448 163.154 154.918 C 163.023 154.531 162.905 154.141 162.788 153.748 C 162.624 153.187 162.484 152.621 162.351 152.054 C 162.249 151.601 162.168 151.26 162.102 150.909 C 161.979 150.273 161.888 149.619 161.805 148.967 L 161.764 148.685 C 161.731 148.451 161.7 148.217 161.678 147.979 C 161.579 146.912 161.527 145.928 161.527 144.976 L 161.527 128.431 L 224.536 128.431 L 224.536 144.976 C 224.536 162.347 210.403 176.48 193.032 176.48 Z " fill="rgb(255,255,255)"/></g><g id="front-hair"><path d=" M 172.962 65.062 C 172.962 45.581 188.779 29.764 208.261 29.764 C 227.743 29.764 243.56 45.581 243.56 65.062 C 243.56 84.544 227.743 100.361 208.261 100.361 C 188.779 100.361 172.962 84.544 172.962 65.062 Z " fill="rgb(16,45,60)"/></g></g></g></g></svg>