<?xml version="1.0" standalone="no"?><!-- Generator: Gravit.io --><svg xmlns="http://www.w3.org/2000/svg" xmlns:xlink="http://www.w3.org/1999/xlink" style="isolation:isolate" viewBox="0 0 313 313" width="313" height="313"><defs><clipPath id="_clipPath_HOaS9uDm4blrfg1e9Gl5DFne17CAIMXo"><rect width="313" height="313"/></clipPath></defs><g clip-path="url(#_clipPath_HOaS9uDm4blrfg1e9Gl5DFne17CAIMXo)"><g id="head"><path d="M 92.572 61.514 L 218.343 61.514 C 224.153 61.514 228.87 66.231 228.87 72.042 L 228.87 197.208 C 228.87 237.15 196.442 269.578 156.5 269.578 L 156.5 269.578 C 116.558 269.578 84.13 237.15 84.13 197.208 L 84.13 69.956 C 84.13 65.297 87.913 61.514 92.572 61.514 Z" style="stroke:none;fill:#FCC194;stroke-miterlimit:10;"/></g><g id="mouth"><path d=" M 199.622 213.491 C 201.569 208.473 202.636 203.029 202.636 197.342 L 110.364 197.342 C 110.364 203.029 111.431 208.473 113.378 213.491 L 199.622 213.491 Z " fill="rgb(252,254,253)"/><path d=" M 199.622 213.491 C 192.997 230.565 176.179 242.706 156.5 242.706 C 136.821 242.706 120.003 230.565 113.378 213.491 L 199.622 213.491 Z " fill="rgb(180,1,54)"/></g></g></svg>