<?xml version="1.0" standalone="no"?><!-- Generator: Gravit.io --><svg xmlns="http://www.w3.org/2000/svg" xmlns:xlink="http://www.w3.org/1999/xlink" style="isolation:isolate" viewBox="0 0 313 313" width="313" height="313"><defs><clipPath id="_clipPath_HOaS9uDm4blrfg1e9Gl5DFne17CAIMXo"><rect width="313" height="313"/></clipPath></defs><g clip-path="url(#_clipPath_HOaS9uDm4blrfg1e9Gl5DFne17CAIMXo)"><g id="head"><path d="M 92.572 61.514 L 218.343 61.514 C 224.153 61.514 228.87 66.231 228.87 72.042 L 228.87 197.208 C 228.87 237.15 196.442 269.578 156.5 269.578 L 156.5 269.578 C 116.558 269.578 84.13 237.15 84.13 197.208 L 84.13 69.956 C 84.13 65.297 87.913 61.514 92.572 61.514 Z" style="stroke:none;fill:#FCC194;stroke-miterlimit:10;"/></g><g id="nose"><path d=" M 141.124 170.808 C 141.122 170.86 141.121 170.912 141.121 170.965 C 141.121 179.452 148.012 186.343 156.5 186.343 C 164.988 186.343 171.879 179.452 171.879 170.965 C 171.879 170.912 171.878 170.86 171.876 170.808 C 169.152 178.074 163.288 183.106 156.5 183.106 C 149.712 183.106 143.848 178.074 141.124 170.808 Z " fill="rgb(248,146,113)"/></g></g></svg>