<?xml version="1.0" standalone="no"?><!-- Generator: Gravit.io --><svg xmlns="http://www.w3.org/2000/svg" xmlns:xlink="http://www.w3.org/1999/xlink" style="isolation:isolate" viewBox="0 0 515.8 912" width="515.8" height="912"><defs><clipPath id="_clipPath_E1vQZB9ljrbvELWFiQDxnqOfYKjj1ViZ"><rect width="515.8" height="912"/></clipPath></defs><g clip-path="url(#_clipPath_E1vQZB9ljrbvELWFiQDxnqOfYKjj1ViZ)"><g id="body"><g id="muscle"><path d=" M 169.44 304.724 C 156.541 288.822 136.84 278.68 114.789 278.68 C 75.867 278.68 44.267 310.28 44.267 349.202 C 44.267 357.382 45.662 365.239 48.24 372.542 C 20.124 382.807 0.017 409.798 0.017 441.448 C 0.017 464.424 10.612 484.944 27.214 498.345 C 20.921 511.797 22.363 528.244 32.307 540.573 L 100.797 625.486 C 114.692 642.713 139.959 645.419 157.186 631.524 C 174.413 617.629 177.118 592.361 163.223 575.134 L 137.359 543.068 C 143.066 537.318 146.594 529.402 146.594 520.669 C 146.594 507.439 138.498 496.085 126.983 491.316 C 136.654 480.92 143.341 467.711 145.664 453.056 C 156.363 473.519 172.534 490.674 192.226 502.585 L 192.226 520.669 L 192.226 520.669 L 257.217 520.669 L 323.591 520.669 L 323.591 520.669 L 323.591 502.585 C 343.283 490.674 359.454 473.519 370.153 453.056 C 372.476 467.711 379.163 480.92 388.834 491.317 C 377.319 496.085 369.224 507.439 369.224 520.669 C 369.224 529.402 372.751 537.318 378.458 543.068 L 352.594 575.134 C 338.699 592.361 341.404 617.629 358.631 631.524 C 375.858 645.419 401.125 642.713 415.02 625.486 L 483.51 540.573 C 493.454 528.244 494.896 511.797 488.604 498.345 C 505.205 484.944 515.8 464.424 515.8 441.449 C 515.8 409.798 495.693 382.807 467.577 372.542 C 470.155 365.239 471.551 357.382 471.551 349.202 C 471.551 310.28 439.95 278.68 401.028 278.68 C 378.977 278.68 359.276 288.822 346.378 304.724 C 323.709 282.619 292.732 269 258.6 269 C 258.369 269 258.137 269.001 257.907 269.006 C 257.678 269.001 257.448 269 257.217 269 C 223.085 269 192.108 282.619 169.44 304.724 Z " fill="rgb(250,148,121)"/><path d=" M 291.69 493.866 L 270.466 493.866 C 265.257 493.866 261.028 498.095 261.028 503.305 L 261.028 503.787 C 261.028 508.996 265.257 513.225 270.466 513.225 L 291.69 513.225 C 296.899 513.225 301.129 508.996 301.129 503.787 L 301.129 503.305 C 301.129 498.095 296.899 493.866 291.69 493.866 Z  M 291.69 469.505 L 270.466 469.505 C 265.257 469.505 261.028 473.735 261.028 478.944 L 261.028 479.426 C 261.028 484.635 265.257 488.865 270.466 488.865 L 291.69 488.865 C 296.899 488.865 301.129 484.635 301.129 479.426 L 301.129 478.944 C 301.129 473.735 296.899 469.505 291.69 469.505 Z  M 291.69 444.615 L 270.466 444.615 C 265.257 444.615 261.028 448.844 261.028 454.054 L 261.028 454.536 C 261.028 459.745 265.257 463.974 270.466 463.974 L 291.69 463.974 C 296.899 463.974 301.129 459.745 301.129 454.536 L 301.129 454.054 C 301.129 448.844 296.899 444.615 291.69 444.615 Z  M 377.182 382.389 C 377.182 384.679 375.324 386.538 373.034 386.538 C 370.745 386.538 368.886 384.679 368.886 382.389 C 368.886 380.1 370.745 378.241 373.034 378.241 C 375.324 378.241 377.182 380.1 377.182 382.389 L 377.182 382.389 Z  M 293.977 320.163 L 381.603 320.163 L 381.603 320.163 C 393.664 320.163 403.456 329.955 403.456 342.016 L 403.456 384.007 C 403.456 396.068 393.664 405.86 381.603 405.86 L 282.88 405.86 C 270.819 405.86 261.028 396.068 261.028 384.007 L 261.028 342.834 C 275.551 341.602 287.898 332.682 293.977 320.163 Z  M 477.189 454.703 C 477.189 427.745 455.303 405.86 428.346 405.86 C 401.389 405.86 379.503 427.745 379.503 454.703 C 379.503 481.66 401.389 503.546 428.346 503.546 C 455.303 503.546 477.189 481.66 477.189 454.703 Z  M 224.127 493.866 L 245.351 493.866 C 250.56 493.866 254.79 498.095 254.79 503.305 L 254.79 503.787 C 254.79 508.996 250.56 513.225 245.351 513.225 L 224.127 513.225 C 218.918 513.225 214.688 508.996 214.688 503.787 L 214.688 503.305 C 214.688 498.095 218.918 493.866 224.127 493.866 Z  M 224.127 469.505 L 245.351 469.505 C 250.56 469.505 254.79 473.735 254.79 478.944 L 254.79 479.426 C 254.79 484.635 250.56 488.865 245.351 488.865 L 224.127 488.865 C 218.918 488.865 214.688 484.635 214.688 479.426 L 214.688 478.944 C 214.688 473.735 218.918 469.505 224.127 469.505 Z  M 224.127 444.615 L 245.351 444.615 C 250.56 444.615 254.79 448.844 254.79 454.054 L 254.79 454.536 C 254.79 459.745 250.56 463.974 245.351 463.974 L 224.127 463.974 C 218.918 463.974 214.688 459.745 214.688 454.536 L 214.688 454.054 C 214.688 448.844 218.918 444.615 224.127 444.615 Z  M 138.635 382.389 C 138.635 384.679 140.494 386.538 142.783 386.538 C 145.073 386.538 146.931 384.679 146.931 382.389 C 146.931 380.1 145.073 378.241 142.783 378.241 C 140.494 378.241 138.635 380.1 138.635 382.389 L 138.635 382.389 Z  M 221.84 320.163 L 134.214 320.163 L 134.214 320.163 C 122.153 320.163 112.362 329.955 112.362 342.016 L 112.362 384.007 C 112.362 396.068 122.153 405.86 134.214 405.86 L 232.937 405.86 C 244.998 405.86 254.79 396.068 254.79 384.007 L 254.79 342.834 C 240.266 341.602 227.919 332.682 221.84 320.163 Z  M 38.628 454.703 C 38.628 427.745 60.514 405.86 87.471 405.86 C 114.428 405.86 136.314 427.745 136.314 454.703 C 136.314 481.66 114.428 503.546 87.471 503.546 C 60.514 503.546 38.628 481.66 38.628 454.703 Z " fill-rule="evenodd" fill="rgb(253,194,149)"/><path d=" M 279.342 912 L 323.591 912 L 323.591 520.669 L 192.226 520.669 L 192.226 912 L 233.982 912 L 233.982 582.895 L 279.342 582.895 L 279.342 912 Z " fill="rgb(0,25,40)"/></g></g><g id="shoes"><path d=" M 369 912 C 369 889.075 351.73 870.463 330.458 870.463 C 309.186 870.463 291.916 889.075 291.916 912 L 369 912 Z  M 223.901 912 C 223.901 889.075 206.631 870.463 185.359 870.463 C 164.087 870.463 146.817 889.075 146.817 912 L 223.901 912 Z " fill-rule="evenodd" fill="rgb(244,0,75)"/></g><g id="head"><g id="neck"><path d=" M 212.355 286.897 C 212.355 261.756 232.767 241.344 257.909 241.344 C 283.05 241.344 303.462 261.756 303.462 286.897 C 303.462 312.039 283.05 332.45 257.909 332.45 C 232.767 332.45 212.355 312.039 212.355 286.897 Z " fill="rgb(251,148,123)"/></g><g id="ears"><path d=" M 188.112 224.822 C 188.112 218.896 192.924 214.084 198.85 214.084 C 204.776 214.084 209.588 218.896 209.588 224.822 C 209.588 230.748 204.776 235.56 198.85 235.56 C 192.924 235.56 188.112 230.748 188.112 224.822 Z " fill="rgb(254,194,149)"/><path d=" M 194.555 224.822 C 194.555 222.451 196.479 220.527 198.85 220.527 C 201.221 220.527 203.145 222.451 203.145 224.822 C 203.145 227.193 201.221 229.117 198.85 229.117 C 196.479 229.117 194.555 227.193 194.555 224.822 Z " fill="rgb(238,157,118)"/><path d=" M 306.229 224.822 C 306.229 218.896 311.041 214.084 316.967 214.084 C 322.894 214.084 327.705 218.896 327.705 224.822 C 327.705 230.748 322.894 235.56 316.967 235.56 C 311.041 235.56 306.229 230.748 306.229 224.822 Z " fill="rgb(254,194,149)"/><path d=" M 312.672 224.822 C 312.672 222.451 314.597 220.527 316.967 220.527 C 319.338 220.527 321.262 222.451 321.262 224.822 C 321.262 227.193 319.338 229.117 316.967 229.117 C 314.597 229.117 312.672 227.193 312.672 224.822 Z " fill="rgb(238,157,118)"/></g><g id="face"><path d=" M 305.332 275.438 C 312.483 268.85 316.967 259.409 316.967 248.929 L 316.967 157.764 C 316.967 137.881 300.825 121.738 280.941 121.738 L 234.876 121.738 C 214.993 121.738 198.85 137.881 198.85 157.764 L 198.85 248.929 C 198.85 260.651 204.46 271.072 213.138 277.656 C 213.238 277.765 213.344 277.872 213.45 277.978 L 234.634 299.163 C 247.718 312.247 268.963 312.247 282.047 299.163 L 302.367 278.843 C 303.448 277.762 304.439 276.626 305.332 275.438 Z " fill="rgb(253,194,149)"/></g><g id="eyes"><path d=" M 220.326 221.601 C 220.326 218.637 222.732 216.232 225.695 216.232 C 228.658 216.232 231.064 218.637 231.064 221.601 C 231.064 224.564 228.658 226.97 225.695 226.97 C 222.732 226.97 220.326 224.564 220.326 221.601 Z " fill="rgb(14,44,58)"/><path d=" M 284.753 221.601 C 284.753 218.637 287.159 216.232 290.122 216.232 C 293.086 216.232 295.491 218.637 295.491 221.601 C 295.491 224.564 293.086 226.97 290.122 226.97 C 287.159 226.97 284.753 224.564 284.753 221.601 Z " fill="rgb(14,44,58)"/></g><g id="brows"><path d="M 220.326 203.346 L 231.064 203.346 C 233.434 203.346 235.359 205.271 235.359 207.641 L 235.359 207.641 C 235.359 210.012 233.434 211.937 231.064 211.937 L 220.326 211.937 C 217.955 211.937 216.031 210.012 216.031 207.641 L 216.031 207.641 C 216.031 205.271 217.955 203.346 220.326 203.346 Z" style="stroke:none;fill:#345061;stroke-miterlimit:10;"/><path d="M 284.753 203.346 L 295.491 203.346 C 297.862 203.346 299.787 205.271 299.787 207.641 L 299.787 207.641 C 299.787 210.012 297.862 211.937 295.491 211.937 L 284.753 211.937 C 282.383 211.937 280.458 210.012 280.458 207.641 L 280.458 207.641 C 280.458 205.271 282.383 203.346 284.753 203.346 Z" style="stroke:none;fill:#345061;stroke-miterlimit:10;"/></g><g id="mouth"><path d=" M 274.338 266.636 C 274.638 266.163 275.111 265.819 275.669 265.691 C 276.228 265.562 276.807 265.648 277.301 265.948 C 277.774 266.249 278.117 266.721 278.246 267.28 C 278.375 267.838 278.289 268.418 277.989 268.912 C 277.151 270.244 276.099 271.403 274.832 272.327 C 273.371 273.4 271.739 274.238 270.021 274.839 C 268.518 275.333 266.971 275.72 265.382 275.935 C 263.256 276.214 261.13 276.364 258.982 276.364 C 256.921 276.364 254.838 276.235 252.797 275.956 C 251.251 275.763 249.748 275.419 248.266 274.947 C 247.3 274.625 246.376 274.238 245.453 273.787 C 244.658 273.4 243.906 272.928 243.198 272.391 C 242.553 271.897 241.952 271.36 241.394 270.78 C 240.857 270.201 240.384 269.578 239.976 268.912 C 239.676 268.418 239.59 267.838 239.719 267.28 C 239.847 266.721 240.191 266.249 240.663 265.948 C 241.157 265.648 241.737 265.562 242.296 265.691 C 242.854 265.819 243.326 266.163 243.627 266.636 C 243.885 267.065 244.207 267.473 244.551 267.86 C 244.916 268.246 245.324 268.633 245.775 268.955 C 246.269 269.342 246.806 269.664 247.385 269.943 C 248.094 270.308 248.824 270.609 249.597 270.845 C 250.822 271.253 252.089 271.532 253.356 271.704 C 255.224 271.94 257.093 272.069 258.982 272.069 C 260.937 272.069 262.87 271.94 264.802 271.682 C 266.112 271.489 267.401 271.188 268.625 270.759 C 269.935 270.329 271.181 269.685 272.276 268.869 C 273.114 268.246 273.801 267.495 274.338 266.636 Z " fill="rgb(239,149,114)"/></g><g id="hair"><path d=" M 316.967 157.764 L 316.967 207.44 L 316.967 207.44 C 310.364 206.31 305.332 200.552 305.332 193.628 L 305.332 188.313 L 225.695 188.313 C 220.711 188.313 215.982 187.216 211.736 185.249 L 211.736 185.249 L 211.736 193.628 C 211.736 200.983 206.058 207.022 198.85 207.597 L 198.85 174.702 C 194.8 169.189 192.407 162.384 192.407 155.026 L 192.407 121.738 L 283.68 121.738 C 302.052 121.738 316.967 136.654 316.967 155.026 L 316.967 157.764 Z " fill="rgb(0,23,42)"/><path d="M 192.407 111 L 256.291 111 C 268.441 111 278.304 120.864 278.304 133.013 L 278.304 155.026 L 214.42 155.026 C 202.271 155.026 192.407 145.162 192.407 133.013 L 192.407 111 Z" style="stroke:none;fill:#00172A;stroke-miterlimit:10;"/></g></g></g></svg>