<?xml version="1.0" standalone="no"?><!-- Generator: Gravit.io --><svg xmlns="http://www.w3.org/2000/svg" xmlns:xlink="http://www.w3.org/1999/xlink" style="isolation:isolate" viewBox="0 0 512 512" width="512" height="512"><defs><clipPath id="_clipPath_6h1NeR3Wqz9swfDPLVbzrR2ErqwSWAU5"><rect width="512" height="512"/></clipPath></defs><g clip-path="url(#_clipPath_6h1NeR3Wqz9swfDPLVbzrR2ErqwSWAU5)"><g id="logo"><linearGradient id="_lgradient_0" x1="5.551115123125783e-15%" y1="100.00000000000003%" x2="100.00000000000007%" y2="8.881784197001252e-14%"><stop offset="0%" stop-opacity="1" style="stop-color:rgb(170,0,56)"/><stop offset="100%" stop-opacity="1" style="stop-color:rgb(238,0,68)"/></linearGradient><rect x="0" y="0" width="512" height="512" transform="matrix(1,0,0,1,0,0)" fill="url(#_lgradient_0)"/><g id="head"><g id="ears"><path d=" M 127.388 282.511 C 127.388 270.325 137.282 260.431 149.466 260.431 C 161.652 260.431 171.545 270.325 171.545 282.511 C 171.545 294.696 161.652 304.59 149.466 304.59 C 137.282 304.59 127.388 294.696 127.388 282.511 Z " fill="rgb(249,191,152)"/><path d=" M 341.55 282.511 C 341.55 270.325 351.444 260.431 363.628 260.431 C 375.815 260.431 385.707 270.325 385.707 282.511 C 385.707 294.696 375.815 304.59 363.628 304.59 C 351.444 304.59 341.55 294.696 341.55 282.511 Z " fill="rgb(249,191,152)"/></g><g id="face"><path d=" M 161.991 135.047 L 348.018 135.047 C 356.613 135.047 363.59 142.024 363.59 150.618 L 363.59 335.751 C 363.59 394.829 315.626 442.793 256.548 442.793 L 256.548 442.793 C 197.47 442.793 149.506 394.829 149.506 335.751 L 149.506 147.534 C 149.506 140.643 155.1 135.047 161.991 135.047 Z " fill="rgb(252,192,146)"/></g><g id="mouth"><path d=" M 298.289 376.583 C 295.34 395.752 278.758 410.451 258.768 410.451 L 254.643 410.451 C 232.573 410.451 214.657 392.533 214.657 370.464 L 214.657 367 L 281.002 367 L 298.289 376.583 Z " fill="rgb(170,0,56)"/><path d=" M 269.14 409.089 C 267.387 388.654 250.22 372.606 229.334 372.606 L 225.209 372.606 C 221.622 372.606 218.146 373.079 214.838 373.968 C 216.59 394.403 233.758 410.451 254.643 410.451 L 258.768 410.451 C 262.355 410.451 265.832 409.978 269.14 409.089 Z " fill="rgb(238,0,68)"/><path d=" M 214.657 330.221 L 214.657 367 L 281.002 367 L 214.657 330.221 Z " fill="rgb(255,254,255)"/></g><g id="nose"><path d=" M 264.09 314.568 C 264.09 312.118 266.078 310.13 268.527 310.13 C 270.975 310.13 272.964 312.118 272.964 314.568 C 272.964 317.017 270.975 319.005 268.527 319.005 C 266.078 319.005 264.09 317.017 264.09 314.568 Z  M 238.945 314.568 C 238.945 312.118 240.933 310.13 243.383 310.13 C 245.831 310.13 247.82 312.118 247.82 314.568 C 247.82 317.017 245.831 319.005 243.383 319.005 C 240.933 319.005 238.945 317.017 238.945 314.568 Z " fill-rule="evenodd" fill="rgb(236,154,115)"/></g><g id="glasses"><path d=" M 373.989 263.217 L 139.105 263.217 L 139.105 252.894 L 373.989 252.894 L 373.989 263.217 Z " fill="rgb(12,36,54)"/><g id="g26509"><path d=" M 207.452 299.986 C 233.543 299.986 254.697 278.919 254.697 252.931 L 160.216 252.931 C 160.216 278.919 181.362 299.986 207.452 299.986 Z " fill="rgb(12,36,54)"/></g><g id="g26513"><path d=" M 187.852 252.931 L 165.729 274.974 C 169.672 282.382 175.549 288.613 182.693 292.995 L 222.911 252.931 L 187.852 252.931 Z " fill="rgb(58,77,92)"/></g><g id="g26517"><path d=" M 233.572 252.931 L 189.771 296.561 C 194.213 298.35 199.003 299.484 204 299.85 L 251.11 252.931 L 233.572 252.931 Z " fill="rgb(58,77,92)"/></g><g id="g26521"><path d=" M 307.622 299.986 C 333.704 299.986 354.857 278.919 354.857 252.931 L 260.373 252.931 C 260.373 278.919 281.53 299.986 307.622 299.986 Z " fill="rgb(12,36,54)"/></g><g id="g26525"><path d=" M 288.019 252.931 L 265.885 274.974 C 269.835 282.382 275.711 288.613 282.858 292.995 L 323.076 252.931 L 288.019 252.931 Z " fill="rgb(58,77,92)"/></g><g id="g26529"><path d=" M 333.738 252.931 L 289.931 296.561 C 294.384 298.35 299.162 299.484 304.167 299.85 L 351.265 252.931 L 333.738 252.931 Z " fill="rgb(58,77,92)"/></g></g><g id="front-hair"><path d=" M 373.989 163.906 L 373.989 262.691 L 373.989 262.691 C 360.858 260.443 350.852 248.993 350.852 235.226 L 350.852 224.656 L 192.489 224.656 C 182.577 224.656 173.173 222.473 164.729 218.563 L 164.729 218.563 L 164.729 235.226 C 164.729 249.851 153.438 261.858 139.105 263.002 L 139.105 197.589 C 131.052 186.626 126.293 173.095 126.293 158.461 L 126.293 92.266 L 307.796 92.266 C 344.329 92.266 373.989 121.928 373.989 158.461 L 373.989 163.906 Z " fill="rgb(0,23,42)"/><path d=" M 126.293 70.914 L 253.331 70.914 C 277.49 70.914 297.106 90.528 297.106 114.687 L 297.106 158.461 L 170.067 158.461 C 145.908 158.461 126.293 138.847 126.293 114.687 L 126.293 70.914 Z " fill="rgb(0,23,42)"/></g></g></g></g></svg>