<?xml version="1.0" standalone="no"?><!-- Generator: Gravit.io --><svg xmlns="http://www.w3.org/2000/svg" xmlns:xlink="http://www.w3.org/1999/xlink" style="isolation:isolate" viewBox="0 0 512 512" width="512" height="512"><defs><clipPath id="_clipPath_tCkni4RxgAuhaMICBfSduxzyCItAXx4s"><rect width="512" height="512"/></clipPath></defs><g clip-path="url(#_clipPath_tCkni4RxgAuhaMICBfSduxzyCItAXx4s)"><g id="head"><g id="ears"><path d=" M 401.77 305.535 C 401.77 326.143 385.062 342.851 364.455 342.851 C 343.843 342.851 327.139 326.143 327.139 305.535 C 327.139 284.927 343.843 268.219 364.455 268.219 C 385.062 268.219 401.77 284.927 401.77 305.535 Z " fill="rgb(242,192,155)"/><path d=" M 374.45 305.535 C 374.45 311.059 369.972 315.54 364.455 315.54 C 358.925 315.54 354.454 311.059 354.454 305.535 C 354.454 300.015 358.925 295.534 364.455 295.534 C 369.972 295.534 374.45 300.015 374.45 305.535 Z " fill="rgb(234,147,124)"/><path d=" M 27.221 305.535 C 27.221 326.143 43.93 342.851 64.537 342.851 C 85.149 342.851 101.853 326.143 101.853 305.535 C 101.853 284.927 85.149 268.219 64.537 268.219 C 43.93 268.219 27.221 284.927 27.221 305.535 Z " fill="rgb(242,192,155)"/><path d=" M 54.542 305.535 C 54.542 311.059 59.019 315.54 64.536 315.54 C 70.067 315.54 74.538 311.059 74.538 305.535 C 74.538 300.015 70.067 295.534 64.536 295.534 C 59.019 295.534 54.542 300.015 54.542 305.535 Z " fill="rgb(234,147,124)"/></g><path d=" M 289.971 484.379 L 146.445 484.379 L 146.445 247.899 L 289.971 247.899 L 289.971 484.379 Z " fill="rgb(234,147,124)"/><path d=" M 358.931 299.149 C 358.931 379.829 293.533 445.231 212.856 445.231 C 132.176 445.231 66.773 379.829 66.773 299.149 L 66.773 203.816 C 66.773 123.132 132.176 57.73 212.856 57.73 C 293.533 57.73 358.931 123.132 358.931 203.816 L 358.931 299.149 Z " fill="rgb(242,192,155)"/><path d=" M 216.173 172.626 C 206.506 154.768 187.616 142.635 165.878 142.635 C 134.32 142.635 108.733 168.215 108.733 199.776 L 108.733 217.139 L 143.032 217.139 C 171.015 208.391 196.017 192.923 216.173 172.626 Z  M 363.822 284.216 C 363.822 292.029 357.486 298.364 349.683 298.364 C 341.864 298.364 335.528 292.029 335.528 284.216 L 335.528 226.606 C 335.528 218.794 341.864 212.458 349.683 212.458 C 357.486 212.458 363.822 218.794 363.822 226.606 L 363.822 284.216 Z " fill-rule="evenodd" fill="rgb(12,36,54)"/><path d=" M 197.062 18.456 C 108.989 26.741 40.094 100.885 40.094 191.122 L 40.094 243.816 L 387.035 243.816 L 387.035 243.815 L 387.035 243.815 L 495.476 243.815 C 502.594 243.815 508.371 238.041 508.371 230.917 C 508.371 223.796 502.594 218.018 495.476 218.018 L 387.035 218.018 L 387.035 191.122 C 387.035 102.871 321.137 30.013 235.873 19.056 C 235.684 8.495 227.063 0 216.457 0 C 206.049 0 197.558 8.175 197.062 18.456 Z  M 223.025 217.139 L 223.025 199.776 C 223.025 168.214 197.441 142.637 165.879 142.637 C 134.321 142.637 108.734 168.214 108.734 199.776 L 108.734 217.139 L 223.025 217.139 L 223.025 217.139 Z " fill-rule="evenodd" fill="rgb(218,28,75)"/><clipPath id="_clipPath_PNhN1r0hC3C6SkudMYjLDipD4LPTBTIy"><path d=" M 197.062 18.456 C 108.989 26.741 40.094 100.885 40.094 191.122 L 40.094 243.816 L 387.035 243.816 L 387.035 243.815 L 387.035 243.815 L 495.476 243.815 C 502.594 243.815 508.371 238.041 508.371 230.917 C 508.371 223.796 502.594 218.018 495.476 218.018 L 387.035 218.018 L 387.035 191.122 C 387.035 102.871 321.137 30.013 235.873 19.056 C 235.684 8.495 227.063 0 216.457 0 C 206.049 0 197.558 8.175 197.062 18.456 Z  M 223.025 217.139 L 223.025 199.776 C 223.025 168.214 197.441 142.637 165.879 142.637 C 134.321 142.637 108.734 168.214 108.734 199.776 L 108.734 217.139 L 223.025 217.139 L 223.025 217.139 Z " fill-rule="evenodd" fill="rgb(218,28,75)"/></clipPath><g clip-path="url(#_clipPath_PNhN1r0hC3C6SkudMYjLDipD4LPTBTIy)"><path d=" M 368.747 204.947 C 368.747 211.263 363.628 216.379 357.306 216.379 L 317.651 216.379 C 311.332 216.379 306.219 211.263 306.219 204.947 C 306.219 198.631 311.332 193.515 317.651 193.515 L 357.306 193.515 C 363.628 193.515 368.747 198.631 368.747 204.947 Z " fill="rgb(250,216,124)"/></g><path d=" M 310.687 491.579 C 310.687 502.857 301.544 512 290.266 512 L 146.155 512 C 134.874 512 125.731 502.857 125.731 491.579 C 125.731 480.301 134.874 471.159 146.155 471.159 L 290.266 471.159 C 301.544 471.159 310.687 480.301 310.687 491.579 Z " fill="rgb(0,102,132)"/><g id="eyes"><path d=" M 165.193 298.369 C 165.193 314.94 151.757 328.38 135.182 328.38 C 118.598 328.38 105.161 314.94 105.161 298.369 C 105.161 281.788 118.598 268.348 135.182 268.348 C 151.757 268.348 165.193 281.788 165.193 298.369 Z  M 305.366 298.369 C 305.366 314.94 291.926 328.38 275.344 328.38 C 258.77 328.38 245.333 314.94 245.333 298.369 C 245.333 281.788 258.77 268.348 275.344 268.348 C 291.926 268.348 305.366 281.788 305.366 298.369 Z " fill-rule="evenodd" fill="rgb(255,255,255)"/><path d=" M 146.485 298.369 C 146.485 304.608 141.422 309.674 135.18 309.674 C 128.935 309.674 123.876 304.608 123.876 298.369 C 123.876 292.124 128.935 287.058 135.18 287.058 C 141.422 287.058 146.485 292.124 146.485 298.369 Z  M 286.654 298.369 C 286.654 304.608 281.591 309.674 275.346 309.674 C 269.1 309.674 264.041 304.608 264.041 298.369 C 264.041 292.124 269.1 287.058 275.346 287.058 C 281.591 287.058 286.654 292.124 286.654 298.369 Z " fill-rule="evenodd" fill="rgb(12,36,54)"/></g><g id="mouth"><path d=" M 235.873 397.619 C 235.873 393.502 235.057 389.586 233.587 386 L 176.94 386 C 175.473 389.586 174.654 393.502 174.654 397.619 C 174.654 406.992 178.865 415.366 185.498 420.983 C 199.679 410.781 216.792 404.392 235.331 403.323 C 235.682 401.475 235.873 399.57 235.873 397.619 Z " fill="rgb(152,20,60)"/><path d=" M 235.331 403.323 C 216.792 404.392 199.679 410.781 185.497 420.983 C 190.834 425.501 197.731 428.221 205.266 428.221 C 220.217 428.221 232.658 417.498 235.331 403.323 Z " fill="rgb(218,28,75)"/></g></g><path d=" M 37 218.879 L 37 252.278 L 186.373 252.278 L 186.373 371.338 L 222.461 371.338 L 222.461 252.278 L 350.324 252.278 L 350.324 379 L 386.412 379 L 386.412 252.278 L 386.412 164.26 Q 386.412 97.265 341.242 60.132 Q 296.072 23 215.052 23 L 215.052 23 Q 128.536 23 82.768 61.606 Q 37 100.212 37 172.709 L 37 218.879 Z  M 213.618 58.364 Q 281.971 58.364 316.625 86.557 Q 351.28 114.751 351.28 170.351 L 351.28 218.879 L 72.132 218.879 L 72.132 178.21 Q 72.132 118.483 107.862 88.424 Q 143.592 58.364 213.618 58.364 L 213.618 58.364 Z " fill-rule="evenodd" fill="rgb(0,0,0)"/></g></svg>