<?xml version="1.0" standalone="no"?><!-- Generator: Gravit.io --><svg xmlns="http://www.w3.org/2000/svg" xmlns:xlink="http://www.w3.org/1999/xlink" style="isolation:isolate" viewBox="0 0 512 512" width="512" height="512"><defs><clipPath id="_clipPath_S3XZgV2GnX2mnulJXTdG7jlm7oBvKcjY"><rect width="512" height="512"/></clipPath></defs><g clip-path="url(#_clipPath_S3XZgV2GnX2mnulJXTdG7jlm7oBvKcjY)"><rect x="0" y="0" width="512" height="512" transform="matrix(1,0,0,1,0,0)" fill="rgb(255,255,255)"/><path d=" M 274.481 404.459 L 309.007 404.459 L 309.007 277.528 L 432.079 277.528 L 432.079 246.861 L 309.007 246.861 L 309.007 138.207 L 440 138.207 L 440 107.541 L 309.007 107.541 L 218.022 107.541 Q 148.768 107.541 110.384 145.925 Q 72 184.309 72 253.157 L 72 253.157 Q 72 326.675 111.907 365.567 Q 151.815 404.459 226.755 404.459 L 274.481 404.459 Z  M 108.556 254.375 Q 108.556 196.291 137.7 166.843 Q 166.843 137.395 224.318 137.395 L 274.481 137.395 L 274.481 374.605 L 232.441 374.605 Q 170.702 374.605 139.629 344.243 Q 108.556 313.881 108.556 254.375 L 108.556 254.375 Z " fill-rule="evenodd" fill="rgb(0,0,0)"/></g></svg>