<?xml version="1.0" standalone="no"?><!-- Generator: Gravit.io --><svg xmlns="http://www.w3.org/2000/svg" xmlns:xlink="http://www.w3.org/1999/xlink" style="isolation:isolate" viewBox="0 0 313 313" width="313" height="313"><defs><clipPath id="_clipPath_HOaS9uDm4blrfg1e9Gl5DFne17CAIMXo"><rect width="313" height="313"/></clipPath></defs><g clip-path="url(#_clipPath_HOaS9uDm4blrfg1e9Gl5DFne17CAIMXo)"><g id="head"><path d="M 92.572 61.514 L 218.343 61.514 C 224.153 61.514 228.87 66.231 228.87 72.042 L 228.87 197.208 C 228.87 237.15 196.442 269.578 156.5 269.578 L 156.5 269.578 C 116.558 269.578 84.13 237.15 84.13 197.208 L 84.13 69.956 C 84.13 65.297 87.913 61.514 92.572 61.514 Z" style="stroke:none;fill:#FCC194;stroke-miterlimit:10;"/></g><g id="brows"><path d=" M 182.096 108.555 L 208.701 108.555 C 213.342 108.555 217.11 112.323 217.11 116.964 L 217.11 118.239 C 217.11 122.88 213.342 126.647 208.701 126.647 L 182.096 126.647 C 177.456 126.647 173.688 122.88 173.688 118.239 L 173.688 116.964 C 173.688 112.323 177.456 108.555 182.096 108.555 Z  M 104.299 108.555 L 130.904 108.555 C 135.544 108.555 139.312 112.323 139.312 116.964 L 139.312 118.239 C 139.312 122.88 135.544 126.647 130.904 126.647 L 104.299 126.647 C 99.658 126.647 95.89 122.88 95.89 118.239 L 95.89 116.964 C 95.89 112.323 99.658 108.555 104.299 108.555 Z " fill-rule="evenodd" fill="rgb(11,45,61)"/></g></g></svg>