<?xml version="1.0" standalone="no"?><!-- Generator: Gravit.io --><svg xmlns="http://www.w3.org/2000/svg" xmlns:xlink="http://www.w3.org/1999/xlink" style="isolation:isolate" viewBox="0 0 313 313" width="313" height="313"><defs><clipPath id="_clipPath_6QKYjtXZ5B3DjYKcfjIb3g6GOJhtObeb"><rect width="313" height="313"/></clipPath></defs><g clip-path="url(#_clipPath_6QKYjtXZ5B3DjYKcfjIb3g6GOJhtObeb)"><g id="head"><g id="neck"><path d="M 156.5 211.682 L 156.5 211.682 C 177.969 211.682 195.399 229.112 195.399 250.581 L 195.399 274.101 C 195.399 295.57 177.969 313 156.5 313 L 156.5 313 C 135.031 313 117.601 295.57 117.601 274.101 L 117.601 250.581 C 117.601 229.112 135.031 211.682 156.5 211.682 Z" style="stroke:none;fill:#FA9178;stroke-miterlimit:10;"/></g><g id="eyes"><g id="ears"><path d=" M 207.611 146.549 C 207.611 136.564 215.718 128.457 225.704 128.457 C 235.689 128.457 243.796 136.564 243.796 146.549 C 243.796 156.535 235.689 164.642 225.704 164.642 C 215.718 164.642 207.611 156.535 207.611 146.549 Z  M 69.204 146.549 C 69.204 136.564 77.311 128.457 87.296 128.457 C 97.282 128.457 105.389 136.564 105.389 146.549 C 105.389 156.535 97.282 164.642 87.296 164.642 C 77.311 164.642 69.204 156.535 69.204 146.549 Z " fill-rule="evenodd" fill="rgb(246,145,120)"/></g></g><g id="hair"><path d=" M 194.825 61.514 C 198.054 55.601 199.89 48.82 199.89 41.613 C 199.89 18.646 181.244 0 158.277 0 L 96.763 0 C 73.796 0 55.15 18.646 55.15 41.613 C 55.15 56.655 63.149 69.844 75.115 77.165 C 67.191 85.29 62.387 95.966 62.387 107.65 C 62.387 133.113 85.203 153.786 113.305 153.786 L 206.932 153.786 C 235.034 153.786 257.85 133.113 257.85 107.65 C 257.85 82.187 235.034 61.514 206.932 61.514 L 194.825 61.514 Z " fill="rgb(16,45,60)"/></g><g id="head"><path d="M 92.572 61.514 L 218.343 61.514 C 224.153 61.514 228.87 66.231 228.87 72.042 L 228.87 197.208 C 228.87 237.15 196.442 269.578 156.5 269.578 L 156.5 269.578 C 116.558 269.578 84.13 237.15 84.13 197.208 L 84.13 69.956 C 84.13 65.297 87.913 61.514 92.572 61.514 Z" style="stroke:none;fill:#FCC194;stroke-miterlimit:10;"/></g><g id="brows"><path d=" M 182.096 108.555 L 208.701 108.555 C 213.342 108.555 217.11 112.323 217.11 116.964 L 217.11 118.239 C 217.11 122.88 213.342 126.647 208.701 126.647 L 182.096 126.647 C 177.456 126.647 173.688 122.88 173.688 118.239 L 173.688 116.964 C 173.688 112.323 177.456 108.555 182.096 108.555 Z  M 104.299 108.555 L 130.904 108.555 C 135.544 108.555 139.312 112.323 139.312 116.964 L 139.312 118.239 C 139.312 122.88 135.544 126.647 130.904 126.647 L 104.299 126.647 C 99.658 126.647 95.89 122.88 95.89 118.239 L 95.89 116.964 C 95.89 112.323 99.658 108.555 104.299 108.555 Z " fill-rule="evenodd" fill="rgb(11,45,61)"/></g><g id="mouth"><path d=" M 199.622 213.491 C 201.569 208.473 202.636 203.029 202.636 197.342 L 110.364 197.342 C 110.364 203.029 111.431 208.473 113.378 213.491 L 199.622 213.491 Z " fill="rgb(252,254,253)"/><path d=" M 199.622 213.491 C 192.997 230.565 176.179 242.706 156.5 242.706 C 136.821 242.706 120.003 230.565 113.378 213.491 L 199.622 213.491 Z " fill="rgb(180,1,54)"/></g><g id="facial-hair"><path d=" M 155.858 184.94 C 160.96 184.938 166.047 181.747 166.047 182 C 166.047 203.801 145.801 220 124 220 C 111.684 220 97.224 204.866 90 196 C 110.291 195.549 134.285 197.058 145.795 182 C 146.835 182.115 151.352 184.942 155.858 184.94 Z " fill="rgb(255,255,255)"/><path d=" M 155.984 184.94 C 150.882 184.938 145.795 181.747 145.795 182 C 145.795 203.801 166.041 220 187.842 220 C 200.158 220 214.618 204.866 221.842 196 C 201.551 195.549 177.557 197.058 166.047 182 C 165.007 182.115 160.49 184.942 155.984 184.94 Z " fill="rgb(255,255,255)"/></g><g id="nose"><path d=" M 141.124 170.808 C 141.122 170.86 141.121 170.912 141.121 170.965 C 141.121 179.452 148.012 186.343 156.5 186.343 C 164.988 186.343 171.879 179.452 171.879 170.965 C 171.879 170.912 171.878 170.86 171.876 170.808 C 169.152 178.074 163.288 183.106 156.5 183.106 C 149.712 183.106 143.848 178.074 141.124 170.808 Z " fill="rgb(248,146,113)"/></g><g id="eyes"><path d=" M 177.306 148.358 C 177.306 138.373 185.413 130.266 195.399 130.266 C 205.384 130.266 213.491 138.373 213.491 148.358 C 213.491 158.344 205.384 166.451 195.399 166.451 C 185.413 166.451 177.306 158.344 177.306 148.358 Z  M 99.509 148.358 C 99.509 138.373 107.616 130.266 117.601 130.266 C 127.587 130.266 135.694 138.373 135.694 148.358 C 135.694 158.344 127.587 166.451 117.601 166.451 C 107.616 166.451 99.509 158.344 99.509 148.358 Z " fill-rule="evenodd" fill="rgb(252,254,253)"/><path d=" M 191.78 148.358 C 191.78 146.361 193.402 144.74 195.399 144.74 C 197.396 144.74 199.017 146.361 199.017 148.358 C 199.017 150.355 197.396 151.977 195.399 151.977 C 193.402 151.977 191.78 150.355 191.78 148.358 Z  M 113.983 148.358 C 113.983 146.361 115.604 144.74 117.601 144.74 C 119.598 144.74 121.22 146.361 121.22 148.358 C 121.22 150.355 119.598 151.977 117.601 151.977 C 115.604 151.977 113.983 150.355 113.983 148.358 Z " fill-rule="evenodd" fill="rgb(11,45,61)"/></g><g id="glasses"><path d=" M 238 139.066 L 75 139.066 L 75 126.647 L 238 126.647 L 238 139.066 Z " fill="rgb(255,255,255)"/><path d=" M 86.393 129.084 L 86.393 144.246 C 86.393 161.407 100.301 175.319 117.466 175.319 C 134.624 175.319 148.537 161.407 148.537 144.246 L 148.537 129.084 L 86.393 129.084 Z " fill="rgb(46,189,231)"/><path d=" M 164.282 129.084 L 164.282 144.246 C 164.282 161.407 178.191 175.319 195.355 175.319 C 212.514 175.319 226.426 161.407 226.426 144.246 L 226.426 129.084 L 164.282 129.084 Z " fill="rgb(46,189,231)"/><path d=" M 86.393 129.084 L 86.393 144.246 C 86.393 151.562 88.927 158.284 93.16 163.593 L 127.671 129.084 L 86.393 129.084 Z " fill="rgb(165,223,249)"/><path d=" M 148.537 129.084 L 134.427 129.084 L 96.413 167.098 C 99.787 170.207 103.847 172.576 108.34 173.955 L 148.537 133.76 L 148.537 129.084 Z " fill="rgb(165,223,249)"/><path d=" M 164.282 129.084 L 164.282 144.246 C 164.282 151.577 166.826 158.314 171.069 163.626 L 205.615 129.084 L 164.282 129.084 Z " fill="rgb(165,223,249)"/><path d=" M 226.426 144.245 L 226.426 139.067 L 190.545 174.951 C 192.113 175.189 193.719 175.32 195.355 175.32 C 212.515 175.32 226.426 161.408 226.426 144.245 Z " fill="rgb(165,223,249)"/><path d=" M 108.962 171.599 L 109.055 171.626 C 111.786 172.465 114.611 172.885 117.465 172.885 C 133.258 172.885 146.104 160.037 146.104 144.244 L 146.104 131.519 L 88.823 131.519 L 88.823 144.244 C 88.823 145.096 88.867 145.995 88.962 146.981 C 88.983 147.15 89.003 147.321 89.029 147.489 L 89.082 147.877 C 89.157 148.471 89.239 149.056 89.351 149.636 C 89.408 149.946 89.477 150.252 89.552 150.554 C 89.697 151.192 89.826 151.702 89.967 152.203 C 90.078 152.569 90.186 152.929 90.305 153.28 C 90.461 153.754 90.637 154.224 90.818 154.692 L 90.888 154.864 C 91.002 155.162 91.119 155.46 91.245 155.744 C 91.448 156.204 91.668 156.646 91.892 157.092 L 92.085 157.474 C 92.181 157.677 92.278 157.879 92.391 158.078 C 92.705 158.648 93.049 159.189 93.395 159.731 C 93.686 160.18 93.994 160.616 94.309 161.044 L 94.567 161.404 C 94.641 161.513 94.717 161.618 94.794 161.73 L 95.07 162.069 C 95.948 163.17 96.964 164.252 98.086 165.286 L 98.993 166.121 C 99.033 166.154 99.067 166.183 99.1 166.214 L 99.379 166.441 C 99.961 166.92 100.563 167.361 101.176 167.786 L 101.62 168.096 C 102.259 168.526 102.915 168.917 103.583 169.287 L 104.085 169.559 C 104.769 169.926 105.473 170.266 106.191 170.575 L 106.582 170.73 C 107.305 171.029 108.036 171.299 108.78 171.539 L 108.962 171.599 Z  M 117.465 177.75 C 114.623 177.75 111.801 177.393 109.059 176.683 L 109.005 176.738 L 107.358 176.19 C 106.464 175.906 105.602 175.588 104.738 175.231 L 104.263 175.044 C 103.471 174.701 102.662 174.312 101.804 173.858 L 101.226 173.546 C 100.427 173.102 99.671 172.642 98.928 172.146 L 98.406 171.788 C 97.687 171.287 96.986 170.773 96.309 170.222 L 96.025 169.986 C 95.567 169.602 95.163 169.249 94.765 168.884 L 92.966 167.226 L 92.963 167.233 L 92.901 167.17 L 92.906 167.164 L 91.255 165.111 C 91.028 164.825 90.813 164.524 90.597 164.226 L 90.37 163.904 C 90.005 163.405 89.649 162.898 89.308 162.37 C 88.898 161.736 88.502 161.096 88.134 160.432 C 87.984 160.166 87.848 159.888 87.712 159.612 L 87.55 159.287 C 87.289 158.765 87.027 158.24 86.791 157.703 C 86.638 157.354 86.497 156.997 86.354 156.639 L 86.292 156.47 C 86.075 155.923 85.872 155.376 85.686 154.818 C 85.543 154.398 85.419 153.981 85.293 153.558 C 85.123 152.974 84.975 152.372 84.836 151.769 C 84.725 151.287 84.639 150.924 84.57 150.55 C 84.441 149.87 84.341 149.183 84.25 148.486 L 84.212 148.173 C 84.176 147.928 84.14 147.684 84.119 147.438 C 84.013 146.3 83.958 145.253 83.958 144.244 L 83.958 126.649 L 150.972 126.649 L 150.972 144.244 C 150.972 162.719 135.94 177.75 117.465 177.75 Z " fill="rgb(255,255,255)"/><path d=" M 191.894 172.656 L 192.174 172.689 C 192.353 172.713 192.529 172.739 192.711 172.749 C 193.693 172.84 194.557 172.885 195.354 172.885 C 211.143 172.885 223.993 160.038 223.993 144.245 L 223.993 131.519 L 166.713 131.519 L 166.713 144.245 C 166.713 145.099 166.755 145.999 166.853 146.982 C 166.867 147.156 166.894 147.33 166.918 147.5 L 166.968 147.874 C 167.042 148.474 167.128 149.061 167.238 149.636 C 167.295 149.95 167.367 150.254 167.436 150.559 C 167.586 151.198 167.713 151.709 167.86 152.215 C 167.963 152.572 168.075 152.933 168.19 153.283 C 168.352 153.761 168.528 154.233 168.71 154.696 L 168.77 154.856 C 168.889 155.159 169.008 155.46 169.134 155.756 C 169.335 156.209 169.561 156.651 169.788 157.101 L 169.972 157.473 C 170.075 157.679 170.175 157.886 170.287 158.091 C 170.575 158.617 170.9 159.127 171.224 159.631 C 171.532 160.11 171.854 160.577 172.188 161.034 L 172.444 161.389 C 172.527 161.51 172.613 161.628 172.699 161.747 L 172.981 162.097 C 177.469 167.717 183.851 171.412 190.949 172.512 L 191.894 172.656 Z  M 195.354 177.75 C 194.404 177.75 193.395 177.702 192.271 177.599 C 192.038 177.573 191.809 177.549 191.577 177.518 L 190.957 177.447 C 190.695 177.42 190.434 177.394 190.172 177.354 L 185.429 176.617 L 185.736 176.311 C 180.134 174.641 175.071 171.536 171.034 167.266 L 170.955 167.352 L 169.172 165.145 C 168.931 164.846 168.707 164.529 168.478 164.214 L 168.254 163.897 C 167.863 163.364 167.488 162.814 167.128 162.255 C 166.749 161.663 166.374 161.067 166.03 160.446 C 165.878 160.172 165.739 159.893 165.605 159.616 L 165.443 159.294 C 165.181 158.772 164.919 158.249 164.684 157.715 C 164.525 157.354 164.384 156.992 164.241 156.626 L 164.181 156.481 C 163.966 155.93 163.763 155.381 163.577 154.818 C 163.437 154.407 163.312 153.992 163.188 153.573 C 163.014 152.976 162.864 152.375 162.723 151.773 C 162.614 151.291 162.528 150.928 162.458 150.554 C 162.327 149.877 162.231 149.182 162.143 148.488 L 162.098 148.189 C 162.064 147.941 162.031 147.691 162.007 147.438 C 161.902 146.304 161.847 145.257 161.847 144.245 L 161.847 126.647 L 228.859 126.647 L 228.859 144.245 C 228.859 162.72 213.827 177.75 195.354 177.75 Z " fill="rgb(255,255,255)"/></g><g id="front hair"><path d=" M 174.007 59.253 C 174.007 38.533 190.829 21.711 211.549 21.711 C 232.269 21.711 249.091 38.533 249.091 59.253 C 249.091 79.973 232.269 96.795 211.549 96.795 C 190.829 96.795 174.007 79.973 174.007 59.253 Z " fill="rgb(16,45,60)"/></g></g></g></svg>