<?xml version="1.0" standalone="no"?><!-- Generator: Gravit.io --><svg xmlns="http://www.w3.org/2000/svg" xmlns:xlink="http://www.w3.org/1999/xlink" style="isolation:isolate" viewBox="0 0 313 313" width="313" height="313"><defs><clipPath id="_clipPath_HOaS9uDm4blrfg1e9Gl5DFne17CAIMXo"><rect width="313" height="313"/></clipPath></defs><g clip-path="url(#_clipPath_HOaS9uDm4blrfg1e9Gl5DFne17CAIMXo)"><g id="hair"><path d=" M 194.825 61.514 C 198.054 55.601 199.89 48.82 199.89 41.613 C 199.89 18.646 181.244 0 158.277 0 L 96.763 0 C 73.796 0 55.15 18.646 55.15 41.613 C 55.15 56.655 63.149 69.844 75.115 77.165 C 67.191 85.29 62.387 95.966 62.387 107.65 C 62.387 133.113 85.203 153.786 113.305 153.786 L 206.932 153.786 C 235.034 153.786 257.85 133.113 257.85 107.65 C 257.85 82.187 235.034 61.514 206.932 61.514 L 194.825 61.514 Z " fill="rgb(16,45,60)"/></g><g id="head"><path d="M 92.572 61.514 L 218.343 61.514 C 224.153 61.514 228.87 66.231 228.87 72.042 L 228.87 197.208 C 228.87 237.15 196.442 269.578 156.5 269.578 L 156.5 269.578 C 116.558 269.578 84.13 237.15 84.13 197.208 L 84.13 69.956 C 84.13 65.297 87.913 61.514 92.572 61.514 Z" style="stroke:none;fill:#FCC194;stroke-miterlimit:10;"/></g></g></svg>