<?xml version="1.0" standalone="no"?><!-- Generator: Gravit.io --><svg xmlns="http://www.w3.org/2000/svg" xmlns:xlink="http://www.w3.org/1999/xlink" style="isolation:isolate" viewBox="0 0 313 313" width="313" height="313"><defs><clipPath id="_clipPath_HOaS9uDm4blrfg1e9Gl5DFne17CAIMXo"><rect width="313" height="313"/></clipPath></defs><g clip-path="url(#_clipPath_HOaS9uDm4blrfg1e9Gl5DFne17CAIMXo)"><g id="neck"><path d="M 156.5 211.682 L 156.5 211.682 C 177.969 211.682 195.399 229.112 195.399 250.581 L 195.399 274.101 C 195.399 295.57 177.969 313 156.5 313 L 156.5 313 C 135.031 313 117.601 295.57 117.601 274.101 L 117.601 250.581 C 117.601 229.112 135.031 211.682 156.5 211.682 Z" style="stroke:none;fill:#FA9178;stroke-miterlimit:10;"/></g><g id="head"><path d="M 92.572 61.514 L 218.343 61.514 C 224.153 61.514 228.87 66.231 228.87 72.042 L 228.87 197.208 C 228.87 237.15 196.442 269.578 156.5 269.578 L 156.5 269.578 C 116.558 269.578 84.13 237.15 84.13 197.208 L 84.13 69.956 C 84.13 65.297 87.913 61.514 92.572 61.514 Z" style="stroke:none;fill:#FCC194;stroke-miterlimit:10;"/></g></g></svg>