<?xml version="1.0" standalone="no"?><!-- Generator: Gravit.io --><svg xmlns="http://www.w3.org/2000/svg" xmlns:xlink="http://www.w3.org/1999/xlink" style="isolation:isolate" viewBox="0 0 313 313" width="313" height="313"><defs><clipPath id="_clipPath_JA4Bx5FxFcursBPDFPvSLAT8VuSGs0wJ"><rect width="313" height="313"/></clipPath></defs><g clip-path="url(#_clipPath_JA4Bx5FxFcursBPDFPvSLAT8VuSGs0wJ)"><g id="shirt"><path d=" M 253.16 31.224 C 259.452 25.984 267.545 22.847 276.365 22.847 L 276.525 22.847 C 296.656 22.847 313 39.19 313 59.321 L 313 179.081 L 274.161 179.081 L 274.161 297.007 L 38.839 297.007 L 38.839 179.081 L 0 179.081 L 0 59.321 C 0 39.19 16.344 22.847 36.474 22.847 L 36.635 22.847 C 45.455 22.847 53.548 25.984 59.84 31.224 C 70.659 21.742 84.83 15.993 100.333 15.993 L 212.667 15.993 C 228.17 15.993 242.341 21.742 253.16 31.224 Z " fill="rgb(244,0,75)"/></g></g></svg>